<svg width="25" height="24" viewBox="0 0 25 24" fill="none" xmlns="http://www.w3.org/2000/svg">
<g clip-path="url(#clip0_137_2494)">
<mask id="mask0_137_2494" style="mask-type:alpha" maskUnits="userSpaceOnUse" x="0" y="0" width="25" height="24">
<rect x="0.5" width="24" height="24" fill="#D9D9D9"/>
</mask>
<g mask="url(#mask0_137_2494)">
<path d="M4.5 13.525L7.025 11L4.5 8.475L1.975 11L4.5 13.525ZM18 13L20.5 9L23 13H18ZM12.5 12C11.6667 12 10.9583 11.7083 10.375 11.125C9.79167 10.5417 9.5 9.83333 9.5 9C9.5 8.15 9.79167 7.4375 10.375 6.8625C10.9583 6.2875 11.6667 6 12.5 6C13.35 6 14.0625 6.2875 14.6375 6.8625C15.2125 7.4375 15.5 8.15 15.5 9C15.5 9.83333 15.2125 10.5417 14.6375 11.125C14.0625 11.7083 13.35 12 12.5 12ZM12.5 8C12.2167 8 11.9792 8.09583 11.7875 8.2875C11.5958 8.47917 11.5 8.71667 11.5 9C11.5 9.28333 11.5958 9.52083 11.7875 9.7125C11.9792 9.90417 12.2167 10 12.5 10C12.7833 10 13.0208 9.90417 13.2125 9.7125C13.4042 9.52083 13.5 9.28333 13.5 9C13.5 8.71667 13.4042 8.47917 13.2125 8.2875C13.0208 8.09583 12.7833 8 12.5 8ZM0.5 17V16.425C0.5 15.6917 0.870833 15.1042 1.6125 14.6625C2.35417 14.2208 3.31667 14 4.5 14C4.71667 14 4.925 14.0042 5.125 14.0125C5.325 14.0208 5.51667 14.0417 5.7 14.075C5.46667 14.4083 5.29167 14.7667 5.175 15.15C5.05833 15.5333 5 15.9417 5 16.375V18H1.5C1.21667 18 0.979167 17.9042 0.7875 17.7125C0.595833 17.5208 0.5 17.2833 0.5 17ZM6.5 17V16.375C6.5 15.2917 7.05417 14.4167 8.1625 13.75C9.27083 13.0833 10.7167 12.75 12.5 12.75C14.3 12.75 15.75 13.0833 16.85 13.75C17.95 14.4167 18.5 15.2917 18.5 16.375V17C18.5 17.2833 18.4042 17.5208 18.2125 17.7125C18.0208 17.9042 17.7833 18 17.5 18H7.5C7.21667 18 6.97917 17.9042 6.7875 17.7125C6.59583 17.5208 6.5 17.2833 6.5 17ZM20.5 14C21.7 14 22.6667 14.2208 23.4 14.6625C24.1333 15.1042 24.5 15.6917 24.5 16.425V17C24.5 17.2833 24.4042 17.5208 24.2125 17.7125C24.0208 17.9042 23.7833 18 23.5 18H20V16.375C20 15.9417 19.9458 15.5333 19.8375 15.15C19.7292 14.7667 19.5667 14.4083 19.35 14.075C19.5333 14.0417 19.7208 14.0208 19.9125 14.0125C20.1042 14.0042 20.3 14 20.5 14ZM12.5 14.75C11.55 14.75 10.7 14.875 9.95 15.125C9.2 15.375 8.75833 15.6667 8.625 16H16.4C16.25 15.6667 15.8042 15.375 15.0625 15.125C14.3208 14.875 13.4667 14.75 12.5 14.75Z" fill="#191919"/>
</g>
</g>
<defs>
<clipPath id="clip0_137_2494">
<rect width="24" height="24" fill="white" transform="translate(0.5)"/>
</clipPath>
</defs>
</svg>
