<svg width="24" height="24" viewBox="0 0 24 24" fill="none" xmlns="http://www.w3.org/2000/svg">
<path fill-rule="evenodd" clip-rule="evenodd" d="M12 24C18.6274 24 24 18.6274 24 12C24 5.37258 18.6274 0 12 0C5.37258 0 0 5.37258 0 12C0 18.6274 5.37258 24 12 24ZM12 22.4615C17.7777 22.4615 22.4615 17.7777 22.4615 12C22.4615 6.22224 17.7777 1.53845 12 1.53845C6.22224 1.53845 1.53845 6.22224 1.53845 12C1.53845 17.7777 6.22224 22.4615 12 22.4615Z" fill="#9C9C9C"/>
<path d="M10.9353 13.6101L8.04991 13.002L13.7919 5.7743L12.819 10.3909L15.7044 10.9989L9.96241 18.2266L10.9353 13.6101Z" fill="#F8F8F8"/>
</svg>
