<svg width="15" height="19" viewBox="0 0 15 19" fill="none" xmlns="http://www.w3.org/2000/svg">
<path d="M14.4604 14.318C14.1995 14.9206 13.8907 15.4754 13.5329 15.9854C13.0453 16.6807 12.646 17.162 12.3382 17.4293C11.8612 17.868 11.3501 18.0926 10.8028 18.1054C10.4099 18.1054 9.9361 17.9936 9.38454 17.7668C8.83117 17.5411 8.32263 17.4293 7.85764 17.4293C7.36997 17.4293 6.84695 17.5411 6.28751 17.7668C5.72722 17.9936 5.27586 18.1118 4.93077 18.1235C4.40593 18.1459 3.88281 17.9148 3.36064 17.4293C3.02736 17.1386 2.6105 16.6403 2.11112 15.9343C1.57532 15.1805 1.13482 14.3063 0.789721 13.3096C0.420135 12.2331 0.234863 11.1907 0.234863 10.1815C0.234863 9.02548 0.484661 8.02842 0.985002 7.19289C1.37823 6.52175 1.90135 5.99234 2.55609 5.6037C3.21082 5.21505 3.91827 5.017 4.68012 5.00433C5.09698 5.00433 5.64364 5.13328 6.32297 5.3867C7.00038 5.64097 7.43535 5.76991 7.62605 5.76991C7.76862 5.76991 8.25182 5.61914 9.07096 5.31855C9.84559 5.03979 10.4994 4.92437 11.035 4.96983C12.4862 5.08696 13.5766 5.65907 14.3017 6.68978C13.0037 7.47622 12.3617 8.57774 12.3744 9.99081C12.3862 11.0915 12.7855 12.0074 13.5702 12.7346C13.9258 13.0722 14.323 13.3331 14.7649 13.5183C14.6691 13.7962 14.5679 14.0624 14.4604 14.318ZM11.1318 1.2201C11.1318 2.08279 10.8167 2.88829 10.1884 3.63385C9.43032 4.52018 8.51333 5.03234 7.51893 4.95152C7.50626 4.84802 7.49892 4.7391 7.49892 4.62463C7.49892 3.79644 7.85945 2.91012 8.4997 2.18543C8.81935 1.81851 9.22589 1.51341 9.71888 1.27004C10.2108 1.03029 10.6761 0.897705 11.1137 0.875C11.1265 0.990329 11.1318 1.10567 11.1318 1.22009V1.2201Z" fill="white"/>
</svg>
