<svg width="25" height="24" viewBox="0 0 25 24" fill="none" xmlns="http://www.w3.org/2000/svg">
<mask id="mask0_35_695" style="mask-type:alpha" maskUnits="userSpaceOnUse" x="0" y="0" width="25" height="24">
<rect x="0.166687" width="24" height="24" fill="#D9D9D9"/>
</mask>
<g mask="url(#mask0_35_695)">
<path d="M6.16669 22C5.33335 22 4.62502 21.7083 4.04169 21.125C3.45835 20.5417 3.16669 19.8333 3.16669 19V17C3.16669 16.7167 3.26252 16.4792 3.45419 16.2875C3.64585 16.0958 3.88335 16 4.16669 16H6.16669V2.60001C6.16669 2.48335 6.21669 2.40418 6.31669 2.36251C6.41669 2.32085 6.50835 2.34168 6.59169 2.42501L7.31669 3.15001C7.41669 3.25001 7.53335 3.30001 7.66669 3.30001C7.80002 3.30001 7.91669 3.25001 8.01669 3.15001L8.81669 2.35001C8.91669 2.25001 9.03335 2.20001 9.16669 2.20001C9.30002 2.20001 9.41669 2.25001 9.51669 2.35001L10.3167 3.15001C10.4167 3.25001 10.5334 3.30001 10.6667 3.30001C10.8 3.30001 10.9167 3.25001 11.0167 3.15001L11.8167 2.35001C11.9167 2.25001 12.0334 2.20001 12.1667 2.20001C12.3 2.20001 12.4167 2.25001 12.5167 2.35001L13.3167 3.15001C13.4167 3.25001 13.5334 3.30001 13.6667 3.30001C13.8 3.30001 13.9167 3.25001 14.0167 3.15001L14.8167 2.35001C14.9167 2.25001 15.0334 2.20001 15.1667 2.20001C15.3 2.20001 15.4167 2.25001 15.5167 2.35001L16.3167 3.15001C16.4167 3.25001 16.5334 3.30001 16.6667 3.30001C16.8 3.30001 16.9167 3.25001 17.0167 3.15001L17.8167 2.35001C17.9167 2.25001 18.0334 2.20001 18.1667 2.20001C18.3 2.20001 18.4167 2.25001 18.5167 2.35001L19.3167 3.15001C19.4167 3.25001 19.5334 3.30001 19.6667 3.30001C19.8 3.30001 19.9167 3.25001 20.0167 3.15001L20.7417 2.42501C20.825 2.34168 20.9167 2.32085 21.0167 2.36251C21.1167 2.40418 21.1667 2.48335 21.1667 2.60001V19C21.1667 19.8333 20.875 20.5417 20.2917 21.125C19.7084 21.7083 19 22 18.1667 22H6.16669ZM18.1667 20C18.45 20 18.6875 19.9042 18.8792 19.7125C19.0709 19.5208 19.1667 19.2833 19.1667 19V5.00001H8.16669V16H16.1667C16.45 16 16.6875 16.0958 16.8792 16.2875C17.0709 16.4792 17.1667 16.7167 17.1667 17V19C17.1667 19.2833 17.2625 19.5208 17.4542 19.7125C17.6459 19.9042 17.8834 20 18.1667 20ZM10.1667 7.00001H14.1667C14.45 7.00001 14.6875 7.09585 14.8792 7.28751C15.0709 7.47918 15.1667 7.71668 15.1667 8.00001C15.1667 8.28335 15.0709 8.52085 14.8792 8.71251C14.6875 8.90418 14.45 9.00001 14.1667 9.00001H10.1667C9.88335 9.00001 9.64585 8.90418 9.45419 8.71251C9.26252 8.52085 9.16669 8.28335 9.16669 8.00001C9.16669 7.71668 9.26252 7.47918 9.45419 7.28751C9.64585 7.09585 9.88335 7.00001 10.1667 7.00001ZM10.1667 10H14.1667C14.45 10 14.6875 10.0958 14.8792 10.2875C15.0709 10.4792 15.1667 10.7167 15.1667 11C15.1667 11.2833 15.0709 11.5208 14.8792 11.7125C14.6875 11.9042 14.45 12 14.1667 12H10.1667C9.88335 12 9.64585 11.9042 9.45419 11.7125C9.26252 11.5208 9.16669 11.2833 9.16669 11C9.16669 10.7167 9.26252 10.4792 9.45419 10.2875C9.64585 10.0958 9.88335 10 10.1667 10ZM17.1667 9.00001C16.8834 9.00001 16.6459 8.90418 16.4542 8.71251C16.2625 8.52085 16.1667 8.28335 16.1667 8.00001C16.1667 7.71668 16.2625 7.47918 16.4542 7.28751C16.6459 7.09585 16.8834 7.00001 17.1667 7.00001C17.45 7.00001 17.6875 7.09585 17.8792 7.28751C18.0709 7.47918 18.1667 7.71668 18.1667 8.00001C18.1667 8.28335 18.0709 8.52085 17.8792 8.71251C17.6875 8.90418 17.45 9.00001 17.1667 9.00001ZM17.1667 12C16.8834 12 16.6459 11.9042 16.4542 11.7125C16.2625 11.5208 16.1667 11.2833 16.1667 11C16.1667 10.7167 16.2625 10.4792 16.4542 10.2875C16.6459 10.0958 16.8834 10 17.1667 10C17.45 10 17.6875 10.0958 17.8792 10.2875C18.0709 10.4792 18.1667 10.7167 18.1667 11C18.1667 11.2833 18.0709 11.5208 17.8792 11.7125C17.6875 11.9042 17.45 12 17.1667 12ZM6.16669 20H15.1667V18H5.16669V19C5.16669 19.2833 5.26252 19.5208 5.45419 19.7125C5.64585 19.9042 5.88335 20 6.16669 20Z" fill="#191919"/>
</g>
</svg>
