<svg width="19" height="20" viewBox="0 0 19 20" fill="none" xmlns="http://www.w3.org/2000/svg">
<path d="M3.625 20C2.79167 20 2.08333 19.7083 1.5 19.125C0.916667 18.5417 0.625 17.8333 0.625 17V15C0.625 14.7167 0.720833 14.4792 0.9125 14.2875C1.10417 14.0958 1.34167 14 1.625 14H3.625V0.600012C3.625 0.483346 3.675 0.404179 3.775 0.362512C3.875 0.320846 3.96667 0.341679 4.05 0.425012L4.775 1.15001C4.875 1.25001 4.99167 1.30001 5.125 1.30001C5.25833 1.30001 5.375 1.25001 5.475 1.15001L6.275 0.350012C6.375 0.250012 6.49167 0.200012 6.625 0.200012C6.75833 0.200012 6.875 0.250012 6.975 0.350012L7.775 1.15001C7.875 1.25001 7.99167 1.30001 8.125 1.30001C8.25833 1.30001 8.375 1.25001 8.475 1.15001L9.275 0.350012C9.375 0.250012 9.49167 0.200012 9.625 0.200012C9.75833 0.200012 9.875 0.250012 9.975 0.350012L10.775 1.15001C10.875 1.25001 10.9917 1.30001 11.125 1.30001C11.2583 1.30001 11.375 1.25001 11.475 1.15001L12.275 0.350012C12.375 0.250012 12.4917 0.200012 12.625 0.200012C12.7583 0.200012 12.875 0.250012 12.975 0.350012L13.775 1.15001C13.875 1.25001 13.9917 1.30001 14.125 1.30001C14.2583 1.30001 14.375 1.25001 14.475 1.15001L15.275 0.350012C15.375 0.250012 15.4917 0.200012 15.625 0.200012C15.7583 0.200012 15.875 0.250012 15.975 0.350012L16.775 1.15001C16.875 1.25001 16.9917 1.30001 17.125 1.30001C17.2583 1.30001 17.375 1.25001 17.475 1.15001L18.2 0.425012C18.2833 0.341679 18.375 0.320846 18.475 0.362512C18.575 0.404179 18.625 0.483346 18.625 0.600012V17C18.625 17.8333 18.3333 18.5417 17.75 19.125C17.1667 19.7083 16.4583 20 15.625 20H3.625ZM15.625 18C15.9083 18 16.1458 17.9042 16.3375 17.7125C16.5292 17.5208 16.625 17.2833 16.625 17V3.00001H5.625V14H13.625C13.9083 14 14.1458 14.0958 14.3375 14.2875C14.5292 14.4792 14.625 14.7167 14.625 15V17C14.625 17.2833 14.7208 17.5208 14.9125 17.7125C15.1042 17.9042 15.3417 18 15.625 18ZM7.625 5.00001H11.625C11.9083 5.00001 12.1458 5.09585 12.3375 5.28751C12.5292 5.47918 12.625 5.71668 12.625 6.00001C12.625 6.28335 12.5292 6.52085 12.3375 6.71251C12.1458 6.90418 11.9083 7.00001 11.625 7.00001H7.625C7.34167 7.00001 7.10417 6.90418 6.9125 6.71251C6.72083 6.52085 6.625 6.28335 6.625 6.00001C6.625 5.71668 6.72083 5.47918 6.9125 5.28751C7.10417 5.09585 7.34167 5.00001 7.625 5.00001ZM7.625 8.00001H11.625C11.9083 8.00001 12.1458 8.09585 12.3375 8.28751C12.5292 8.47918 12.625 8.71668 12.625 9.00001C12.625 9.28335 12.5292 9.52085 12.3375 9.71251C12.1458 9.90418 11.9083 10 11.625 10H7.625C7.34167 10 7.10417 9.90418 6.9125 9.71251C6.72083 9.52085 6.625 9.28335 6.625 9.00001C6.625 8.71668 6.72083 8.47918 6.9125 8.28751C7.10417 8.09585 7.34167 8.00001 7.625 8.00001ZM14.625 7.00001C14.3417 7.00001 14.1042 6.90418 13.9125 6.71251C13.7208 6.52085 13.625 6.28335 13.625 6.00001C13.625 5.71668 13.7208 5.47918 13.9125 5.28751C14.1042 5.09585 14.3417 5.00001 14.625 5.00001C14.9083 5.00001 15.1458 5.09585 15.3375 5.28751C15.5292 5.47918 15.625 5.71668 15.625 6.00001C15.625 6.28335 15.5292 6.52085 15.3375 6.71251C15.1458 6.90418 14.9083 7.00001 14.625 7.00001ZM14.625 10C14.3417 10 14.1042 9.90418 13.9125 9.71251C13.7208 9.52085 13.625 9.28335 13.625 9.00001C13.625 8.71668 13.7208 8.47918 13.9125 8.28751C14.1042 8.09585 14.3417 8.00001 14.625 8.00001C14.9083 8.00001 15.1458 8.09585 15.3375 8.28751C15.5292 8.47918 15.625 8.71668 15.625 9.00001C15.625 9.28335 15.5292 9.52085 15.3375 9.71251C15.1458 9.90418 14.9083 10 14.625 10ZM3.625 18H12.625V16H2.625V17C2.625 17.2833 2.72083 17.5208 2.9125 17.7125C3.10417 17.9042 3.34167 18 3.625 18Z" fill="#9D9D9D"/>
</svg>
