<svg width="24" height="24" viewBox="0 0 24 24" fill="none" xmlns="http://www.w3.org/2000/svg">
<g clip-path="url(#clip0_137_2527)">
<mask id="mask0_137_2527" style="mask-type:alpha" maskUnits="userSpaceOnUse" x="0" y="0" width="24" height="24">
<rect width="24" height="24" fill="#D9D9D9"/>
</mask>
<g mask="url(#mask0_137_2527)">
<path d="M5.0625 17.9106C4.76146 17.9106 4.50911 17.8119 4.30547 17.6145C4.10182 17.4171 4 17.1725 4 16.8808C4 16.589 4.10182 16.3444 4.30547 16.147C4.50911 15.9496 4.76146 15.8509 5.0625 15.8509H6.125V10.2385C6.125 8.81392 6.56771 7.54811 7.45312 6.44107C8.33854 5.33402 9.48958 4.60886 10.9062 4.26559V3.54472C10.9062 3.11563 11.0612 2.7509 11.3711 2.45054C11.681 2.15018 12.0573 2 12.5 2C12.9427 2 13.319 2.15018 13.6289 2.45054C13.9388 2.7509 14.0938 3.11563 14.0938 3.54472V4.26559C15.5104 4.60886 16.6615 5.33402 17.5469 6.44107C18.4323 7.54811 18.875 8.81392 18.875 10.2385V15.8509H19.9375C20.2385 15.8509 20.4909 15.9496 20.6945 16.147C20.8982 16.3444 21 16.589 21 16.8808C21 17.1725 20.8982 17.4171 20.6945 17.6145C20.4909 17.8119 20.2385 17.9106 19.9375 17.9106H5.0625ZM12.5 21C11.9156 21 11.4154 20.7983 10.9992 20.395C10.5831 19.9916 10.375 19.5068 10.375 18.9404H14.625C14.625 19.5068 14.4169 19.9916 14.0008 20.395C13.5846 20.7983 13.0844 21 12.5 21ZM8.25 15.8509H16.75V10.2385C16.75 9.1057 16.3339 8.13596 15.5016 7.32928C14.6693 6.52259 13.6687 6.11925 12.5 6.11925C11.3312 6.11925 10.3307 6.52259 9.49844 7.32928C8.66615 8.13596 8.25 9.1057 8.25 10.2385V15.8509Z" fill="#191919"/>
</g>
</g>
<defs>
<clipPath id="clip0_137_2527">
<rect width="24" height="24" fill="white"/>
</clipPath>
</defs>
</svg>
