<svg width="25" height="24" viewBox="0 0 25 24" fill="none" xmlns="http://www.w3.org/2000/svg">
<g clip-path="url(#clip0_21_2598)">
<mask id="mask0_21_2598" style="mask-type:alpha" maskUnits="userSpaceOnUse" x="0" y="0" width="25" height="24">
<rect x="0.833374" width="24" height="24" fill="#D9D9D9"/>
</mask>
<g mask="url(#mask0_21_2598)">
<path d="M5.89587 17.9106C5.59483 17.9106 5.34249 17.8119 5.13884 17.6145C4.9352 17.4171 4.83337 17.1725 4.83337 16.8808C4.83337 16.589 4.9352 16.3444 5.13884 16.147C5.34249 15.9496 5.59483 15.8509 5.89587 15.8509H6.95837V10.2385C6.95837 8.81392 7.40108 7.54811 8.2865 6.44107C9.17192 5.33402 10.323 4.60886 11.7396 4.26559V3.54472C11.7396 3.11563 11.8946 2.7509 12.2045 2.45054C12.5144 2.15018 12.8907 2 13.3334 2C13.7761 2 14.1524 2.15018 14.4623 2.45054C14.7722 2.7509 14.9271 3.11563 14.9271 3.54472V4.26559C16.3438 4.60886 17.4948 5.33402 18.3802 6.44107C19.2657 7.54811 19.7084 8.81392 19.7084 10.2385V15.8509H20.7709C21.0719 15.8509 21.3243 15.9496 21.5279 16.147C21.7316 16.3444 21.8334 16.589 21.8334 16.8808C21.8334 17.1725 21.7316 17.4171 21.5279 17.6145C21.3243 17.8119 21.0719 17.9106 20.7709 17.9106H5.89587ZM13.3334 21C12.749 21 12.2487 20.7983 11.8326 20.395C11.4164 19.9916 11.2084 19.5068 11.2084 18.9404H15.4584C15.4584 19.5068 15.2503 19.9916 14.8342 20.395C14.418 20.7983 13.9177 21 13.3334 21ZM9.08337 15.8509H17.5834V10.2385C17.5834 9.1057 17.1672 8.13596 16.3349 7.32928C15.5026 6.52259 14.5021 6.11925 13.3334 6.11925C12.1646 6.11925 11.1641 6.52259 10.3318 7.32928C9.49952 8.13596 9.08337 9.1057 9.08337 10.2385V15.8509Z" fill="#191919"/>
</g>
</g>
<defs>
<clipPath id="clip0_21_2598">
<rect width="24" height="24" fill="white" transform="translate(0.833374)"/>
</clipPath>
</defs>
</svg>
