<svg width="24" height="24" viewBox="0 0 24 24" fill="none" xmlns="http://www.w3.org/2000/svg">
<path d="M10.9507 17.9014C9.00808 17.9014 7.36397 17.2286 6.01838 15.883C4.67279 14.5375 4 12.8933 4 10.9507C4 9.00808 4.67279 7.36397 6.01838 6.01838C7.36397 4.67279 9.00808 4 10.9507 4C12.8933 4 14.5375 4.67279 15.883 6.01838C17.2286 7.36397 17.9014 9.00808 17.9014 10.9507C17.9014 11.7349 17.7767 12.4745 17.5272 13.1696C17.2776 13.8647 16.939 14.4795 16.5113 15.0142L19.7059 18.2089C19.902 18.4049 20 18.6544 20 18.9574C20 19.2604 19.902 19.5099 19.7059 19.7059C19.5099 19.902 19.2604 20 18.9574 20C18.6544 20 18.4049 19.902 18.2089 19.7059L15.0142 16.5113C14.4795 16.939 13.8647 17.2776 13.1696 17.5272C12.4745 17.7767 11.7349 17.9014 10.9507 17.9014ZM10.9507 15.7627C12.2874 15.7627 13.4236 15.2949 14.3592 14.3592C15.2949 13.4236 15.7627 12.2874 15.7627 10.9507C15.7627 9.61404 15.2949 8.47786 14.3592 7.54219C13.4236 6.60652 12.2874 6.13868 10.9507 6.13868C9.61404 6.13868 8.47786 6.60652 7.54219 7.54219C6.60652 8.47786 6.13868 9.61404 6.13868 10.9507C6.13868 12.2874 6.60652 13.4236 7.54219 14.3592C8.47786 15.2949 9.61404 15.7627 10.9507 15.7627Z" fill="#191919"/>
</svg>
