<svg width="180" height="202" viewBox="0 0 180 202" fill="none" xmlns="http://www.w3.org/2000/svg">
<path d="M150.444 37.207C147.245 32.7745 143.017 29.5923 138.333 28.0011C133.192 26.1827 128.621 22.8868 124.965 18.909C123.366 17.0905 121.652 15.3857 119.71 13.7946C101.315 -2.00308 74.9221 -4.2761 54.3564 7.20278C49.1007 10.1577 43.3879 12.0898 37.4467 13.2263H37.3325C31.1628 14.4765 26.3641 19.7045 25.5643 25.9554C25.4501 27.4329 25.45 28.7967 25.6785 30.1605C26.5926 35.7295 26.9354 41.2985 25.9071 46.8674C22.708 64.5972 27.9637 83.5771 41.7884 97.3291C56.8699 112.218 78.1213 117.218 97.2017 111.99C103.828 110.172 110.798 109.717 117.653 110.172C122.109 110.399 126.565 108.922 129.993 105.512C134.448 101.08 135.819 94.6014 133.877 89.0324C132.963 86.3048 133.192 83.2362 134.334 80.6221V80.5085C135.477 77.8945 137.648 75.9624 140.161 74.8259C144.16 73.0075 147.702 70.0525 150.558 66.0747C156.5 57.2098 156.499 45.6172 150.444 37.207Z" fill="white"/>
<path d="M69.1814 59.6335C68.201 59.6335 67.4657 58.8986 67.4657 57.9187C67.4657 56.9633 68.201 56.2283 69.1814 56.2283H80.2843V41.4072C80.2843 40.4517 81.0196 39.7168 81.9755 39.7168C82.9314 39.7168 83.6912 40.4517 83.6912 41.4072V57.9187C83.6912 58.8986 82.9314 59.6335 81.9755 59.6335H69.1814ZM82 81.9755C95.6765 81.9755 107 70.633 107 56.9878C107 43.318 95.652 32 81.9755 32C68.3235 32 57 43.318 57 56.9878C57 70.633 68.348 81.9755 82 81.9755Z" fill="#FFBD3D"/>
<path d="M28.692 154.976H33.66V160.772H2.34V154.976H7.164L6.516 146.768H13.752L14.256 154.976H21.6L22.14 146.768H29.376L28.692 154.976ZM1.44 165.884H34.56V172.436H1.44V165.884ZM2.7 140.072H33.3V145.868H2.7V140.072ZM38.16 140.612H57.42V158.612H46.08V164.768L60.264 163.58V170.06L38.16 171.896V152.492H49.608V146.912H38.16V140.612ZM61.2 139.532H69.12V151.664H72.864V158.54H69.12V172.976H61.2V139.532ZM74.16 148.964C74.16 147.644 74.424 146.444 74.952 145.364C75.504 144.26 76.236 143.324 77.148 142.556C78.06 141.764 79.128 141.152 80.352 140.72C81.6 140.288 82.92 140.072 84.312 140.072C85.704 140.072 87.024 140.288 88.272 140.72C89.52 141.152 90.6 141.764 91.512 142.556C92.448 143.324 93.18 144.26 93.708 145.364C94.26 146.444 94.536 147.644 94.536 148.964V163.544C94.536 164.864 94.26 166.064 93.708 167.144C93.18 168.248 92.448 169.184 91.512 169.952C90.6 170.744 89.52 171.356 88.272 171.788C87.024 172.22 85.704 172.436 84.312 172.436C82.92 172.436 81.6 172.22 80.352 171.788C79.128 171.356 78.06 170.744 77.148 169.952C76.236 169.184 75.504 168.248 74.952 167.144C74.424 166.064 74.16 164.864 74.16 163.544V148.964ZM98.064 139.532H106.164V172.976H98.064V139.532ZM81.828 163.904C81.828 164.528 82.068 165.092 82.548 165.596C83.028 166.1 83.652 166.352 84.42 166.352C85.188 166.352 85.812 166.1 86.292 165.596C86.796 165.092 87.048 164.528 87.048 163.904V148.604C87.048 148.316 86.976 148.028 86.832 147.74C86.712 147.428 86.532 147.152 86.292 146.912C86.076 146.672 85.8 146.48 85.464 146.336C85.152 146.192 84.804 146.12 84.42 146.12C84.036 146.12 83.676 146.192 83.34 146.336C83.028 146.48 82.752 146.672 82.512 146.912C82.296 147.152 82.128 147.428 82.008 147.74C81.888 148.028 81.828 148.316 81.828 148.604V163.904ZM127.512 170.456L110.16 171.896V140.612H125.892V146.732H117V164.948L127.512 164.084V170.456ZM122.076 152.096H128.412V139.532H134.712V172.976H128.412V158.252H122.076V152.096ZM136.116 139.532H142.56V172.976H136.116V139.532ZM146.16 148.964C146.16 147.644 146.424 146.444 146.952 145.364C147.504 144.26 148.236 143.324 149.148 142.556C150.06 141.764 151.128 141.152 152.352 140.72C153.6 140.288 154.92 140.072 156.312 140.072C157.704 140.072 159.024 140.288 160.272 140.72C161.52 141.152 162.6 141.764 163.512 142.556C164.448 143.324 165.18 144.26 165.708 145.364C166.26 146.444 166.536 147.644 166.536 148.964V163.544C166.536 164.864 166.26 166.064 165.708 167.144C165.18 168.248 164.448 169.184 163.512 169.952C162.6 170.744 161.52 171.356 160.272 171.788C159.024 172.22 157.704 172.436 156.312 172.436C154.92 172.436 153.6 172.22 152.352 171.788C151.128 171.356 150.06 170.744 149.148 169.952C148.236 169.184 147.504 168.248 146.952 167.144C146.424 166.064 146.16 164.864 146.16 163.544V148.964ZM170.064 139.532H178.164V172.976H170.064V139.532ZM153.828 163.904C153.828 164.528 154.068 165.092 154.548 165.596C155.028 166.1 155.652 166.352 156.42 166.352C157.188 166.352 157.812 166.1 158.292 165.596C158.796 165.092 159.048 164.528 159.048 163.904V148.604C159.048 148.316 158.976 148.028 158.832 147.74C158.712 147.428 158.532 147.152 158.292 146.912C158.076 146.672 157.8 146.48 157.464 146.336C157.152 146.192 156.804 146.12 156.42 146.12C156.036 146.12 155.676 146.192 155.34 146.336C155.028 146.48 154.752 146.672 154.512 146.912C154.296 147.152 154.128 147.428 154.008 147.74C153.888 148.028 153.828 148.316 153.828 148.604V163.904Z" fill="#0C0C0C"/>
<path d="M15.145 186.061C18.1727 186.066 20.4102 187.58 20.4102 189.867C20.4102 191.994 18.5925 193.403 16.0069 193.657V196.249H21.6312V197.674H8.71961V196.249H14.2831V193.657C11.7141 193.403 9.89641 191.989 9.90193 189.867C9.89641 187.58 12.134 186.066 15.145 186.061ZM11.6036 189.867C11.6036 191.403 13.0732 192.309 15.145 192.315C17.2334 192.309 18.703 191.403 18.703 189.867C18.703 188.398 17.2334 187.459 15.145 187.464C13.0732 187.459 11.6036 188.398 11.6036 189.867ZM33.9511 188.304V189.696H24.1997V185.459H25.9124V188.304H33.9511ZM22.5312 192.171V190.79H35.4428V192.171H22.5312ZM24.056 194.508V193.166H33.8571V196.768H25.8295V197.862H34.3212V199.215H24.0781V195.503H32.1389V194.508H24.056ZM42.8013 185.486C46.0167 185.486 47.8842 186.343 47.8842 187.901C47.8842 189.481 46.0167 190.337 42.8013 190.343C39.5858 190.337 37.7074 189.481 37.7129 187.901C37.7074 186.343 39.5858 185.486 42.8013 185.486ZM36.3759 192.486V191.099H49.2433V192.486H36.3759ZM37.8897 194.724V193.431H47.6411V196.89H39.6079V197.939H48.0278V199.265H37.9062V195.657H45.9283V194.724H37.8897ZM39.5306 187.901C39.5195 188.685 40.6466 189.044 42.8013 189.05C44.9781 189.044 46.0996 188.685 46.0996 187.901C46.0996 187.177 44.9781 186.768 42.8013 186.768C40.6466 186.768 39.5195 187.177 39.5306 187.901ZM61.0782 186.282V192.718H54.4815V186.282H61.0782ZM55.2716 197.956C58.0893 197.552 59.8296 196.039 59.8296 194.32V193.934H61.5533V194.32C61.5478 196.039 63.2992 197.552 66.1445 197.956L65.4539 199.315C63.2661 198.961 61.5644 197.961 60.708 196.552C59.8406 197.961 58.139 198.961 55.9511 199.315L55.2716 197.956ZM56.1942 191.326H59.3655V187.674H56.1942V191.326ZM63.3987 194.613V185.271H65.1445V188.912H67.1169V190.359H65.1445V194.613H63.3987ZM72.8456 194.459C72.8456 195.635 73.3815 196.856 74.5969 197.63C75.8235 196.807 76.398 195.525 76.398 194.459V193.878H78.1108V194.459C78.0997 195.928 78.9726 197.32 80.8345 197.912L79.9837 199.177C78.6135 198.713 77.6964 197.812 77.2047 196.685C76.7516 197.801 75.9229 198.79 74.6411 199.304C73.2986 198.807 72.4588 197.856 72.0113 196.735C71.503 197.818 70.6025 198.707 69.2876 199.177L68.4312 197.912C70.2655 197.265 71.1439 195.829 71.155 194.459V193.878H72.8456V194.459ZM68.0831 189.398C68.0776 187.409 69.7074 186.033 71.8898 186.033C74.0666 186.033 75.6909 187.409 75.6909 189.398C75.6909 191.354 74.0666 192.74 71.8898 192.735C69.7074 192.74 68.0776 191.354 68.0831 189.398ZM69.7793 189.398C69.7737 190.547 70.6577 191.293 71.8898 191.293C73.0997 191.293 73.9837 190.547 73.9837 189.398C73.9837 188.232 73.0997 187.492 71.8898 187.497C70.6577 187.492 69.7737 188.232 69.7793 189.398ZM77.8456 193.282V185.282H79.5859V193.282H77.8456ZM93.8339 185.271V199.381H92.193V185.271H93.8339ZM81.5466 195.177C84.4693 193.442 85.8118 191.238 86.0715 188.398H82.2648V186.989H87.8008C87.7952 188.348 87.6295 189.635 87.2483 190.829H89.2096V185.613H90.845V198.724H89.2096V192.215H86.6792C85.856 193.834 84.53 195.249 82.5356 196.409L81.5466 195.177ZM111.072 185.271V199.381H109.321V185.271H111.072ZM99.376 195.497C103.072 193.74 104.785 191.359 105.094 188.144H100.094V186.768H106.862C106.857 190.972 105.227 194.541 100.288 196.89L99.376 195.497ZM124.939 194.304V199.403H123.204V195.685H115.309V194.304H124.939ZM113.304 189.47C113.293 187.47 114.9 186.033 117.027 186.044C118.873 186.033 120.32 187.138 120.657 188.762H123.204V185.271H124.939V193.602H123.204V190.193H120.657C120.32 191.834 118.867 192.939 117.027 192.934C114.9 192.939 113.293 191.503 113.304 189.47ZM114.956 189.47C114.956 190.691 115.845 191.459 117.027 191.464C118.188 191.459 119.072 190.691 119.072 189.47C119.072 188.287 118.188 187.514 117.027 187.514C115.845 187.514 114.956 188.287 114.956 189.47ZM137.999 185.271V190.895H140.176V192.326H137.999V199.381H136.281V185.271H137.999ZM126.861 188.834V187.431H130.198V185.47H131.933V187.431H135.193V188.834H126.861ZM127.513 193.072C127.502 191.122 129.016 189.746 131.076 189.746C133.11 189.746 134.618 191.122 134.629 193.072C134.618 195.022 133.11 196.392 131.076 196.392C129.016 196.392 127.502 195.022 127.513 193.072ZM129.176 193.072C129.165 194.232 129.972 194.967 131.076 194.956C132.165 194.967 132.955 194.232 132.966 193.072C132.955 191.928 132.165 191.171 131.076 191.171C129.972 191.171 129.165 191.928 129.176 193.072ZM152.208 189.26V190.635H142.418V185.779H144.148V189.26H152.208ZM140.75 193.652V192.282H153.662V193.652H140.75ZM142.302 199.061V194.901H144.037V197.652H152.297V199.061H142.302ZM160.773 185.994V187.923H163.927V185.994H165.646V188.575H168.485V185.271H170.22V192.989H168.485V190.011H165.646V192.547H159.027V185.994H160.773ZM160.773 191.149H163.927V189.271H160.773V191.149ZM160.911 199.193V193.608H162.64V195.05H168.485V193.608H170.215V199.193H160.911ZM162.64 197.79H168.485V196.398H162.64V197.79Z" fill="#0C0C0C"/>
</svg>
