<svg width="119" height="23" viewBox="0 0 119 23" fill="none" xmlns="http://www.w3.org/2000/svg">
<path d="M19.128 10.484H22.44V14.348H1.56V10.484H4.776L4.344 5.012H9.168L9.504 10.484H14.4L14.76 5.012H19.584L19.128 10.484ZM0.96 17.756H23.04V22.124H0.96V17.756ZM1.8 0.547999H22.2V4.412H1.8V0.547999ZM25.44 0.907999H38.28V12.908H30.72V17.012L40.176 16.22V20.54L25.44 21.764V8.828H33.072V5.108H25.44V0.907999ZM40.8 0.188H46.08V8.276H48.576V12.86H46.08V22.484H40.8V0.188ZM49.44 6.476C49.44 5.596 49.616 4.796 49.968 4.076C50.336 3.34 50.824 2.716 51.432 2.204C52.04 1.676 52.752 1.268 53.568 0.98C54.4 0.691999 55.28 0.547999 56.208 0.547999C57.136 0.547999 58.016 0.691999 58.848 0.98C59.68 1.268 60.4 1.676 61.008 2.204C61.632 2.716 62.12 3.34 62.472 4.076C62.84 4.796 63.024 5.596 63.024 6.476V16.196C63.024 17.076 62.84 17.876 62.472 18.596C62.12 19.332 61.632 19.956 61.008 20.468C60.4 20.996 59.68 21.404 58.848 21.692C58.016 21.98 57.136 22.124 56.208 22.124C55.28 22.124 54.4 21.98 53.568 21.692C52.752 21.404 52.04 20.996 51.432 20.468C50.824 19.956 50.336 19.332 49.968 18.596C49.616 17.876 49.44 17.076 49.44 16.196V6.476ZM65.376 0.188H70.776V22.484H65.376V0.188ZM54.552 16.436C54.552 16.852 54.712 17.228 55.032 17.564C55.352 17.9 55.768 18.068 56.28 18.068C56.792 18.068 57.208 17.9 57.528 17.564C57.864 17.228 58.032 16.852 58.032 16.436V6.236C58.032 6.044 57.984 5.852 57.888 5.66C57.808 5.452 57.688 5.268 57.528 5.108C57.384 4.948 57.2 4.82 56.976 4.724C56.768 4.628 56.536 4.58 56.28 4.58C56.024 4.58 55.784 4.628 55.56 4.724C55.352 4.82 55.168 4.948 55.008 5.108C54.864 5.268 54.752 5.452 54.672 5.66C54.592 5.852 54.552 6.044 54.552 6.236V16.436ZM85.008 20.804L73.44 21.764V0.907999H83.928V4.988H78V17.132L85.008 16.556V20.804ZM81.384 8.564H85.608V0.188H89.808V22.484H85.608V12.668H81.384V8.564ZM90.744 0.188H95.04V22.484H90.744V0.188ZM97.44 6.476C97.44 5.596 97.616 4.796 97.968 4.076C98.336 3.34 98.824 2.716 99.432 2.204C100.04 1.676 100.752 1.268 101.568 0.98C102.4 0.691999 103.28 0.547999 104.208 0.547999C105.136 0.547999 106.016 0.691999 106.848 0.98C107.68 1.268 108.4 1.676 109.008 2.204C109.632 2.716 110.12 3.34 110.472 4.076C110.84 4.796 111.024 5.596 111.024 6.476V16.196C111.024 17.076 110.84 17.876 110.472 18.596C110.12 19.332 109.632 19.956 109.008 20.468C108.4 20.996 107.68 21.404 106.848 21.692C106.016 21.98 105.136 22.124 104.208 22.124C103.28 22.124 102.4 21.98 101.568 21.692C100.752 21.404 100.04 20.996 99.432 20.468C98.824 19.956 98.336 19.332 97.968 18.596C97.616 17.876 97.44 17.076 97.44 16.196V6.476ZM113.376 0.188H118.776V22.484H113.376V0.188ZM102.552 16.436C102.552 16.852 102.712 17.228 103.032 17.564C103.352 17.9 103.768 18.068 104.28 18.068C104.792 18.068 105.208 17.9 105.528 17.564C105.864 17.228 106.032 16.852 106.032 16.436V6.236C106.032 6.044 105.984 5.852 105.888 5.66C105.808 5.452 105.688 5.268 105.528 5.108C105.384 4.948 105.2 4.82 104.976 4.724C104.768 4.628 104.536 4.58 104.28 4.58C104.024 4.58 103.784 4.628 103.56 4.724C103.352 4.82 103.168 4.948 103.008 5.108C102.864 5.268 102.752 5.452 102.672 5.66C102.592 5.852 102.552 6.044 102.552 6.236V16.436Z" fill="#0C0C0C"/>
</svg>
