<svg width="21" height="16" viewBox="0 0 21 16" fill="none" xmlns="http://www.w3.org/2000/svg">
<path d="M20.375 2V14C20.375 14.55 20.1792 15.0208 19.7875 15.4125C19.3958 15.8042 18.925 16 18.375 16H2.375C1.825 16 1.35417 15.8042 0.9625 15.4125C0.570833 15.0208 0.375 14.55 0.375 14V2C0.375 1.45 0.570833 0.979167 0.9625 0.5875C1.35417 0.195833 1.825 0 2.375 0H18.375C18.925 0 19.3958 0.195833 19.7875 0.5875C20.1792 0.979167 20.375 1.45 20.375 2ZM2.375 4H18.375V2H2.375V4ZM2.375 8V14H18.375V8H2.375Z" fill="#9D9D9D"/>
</svg>
