<svg width="25" height="24" viewBox="0 0 25 24" fill="none" xmlns="http://www.w3.org/2000/svg">
<g clip-path="url(#clip0_137_2516)">
<mask id="mask0_137_2516" style="mask-type:alpha" maskUnits="userSpaceOnUse" x="0" y="0" width="25" height="24">
<rect x="0.5" width="24" height="24" fill="#D9D9D9"/>
</mask>
<g mask="url(#mask0_137_2516)">
<path d="M11.5 13H6.5C6.21667 13 5.97917 12.9042 5.7875 12.7125C5.59583 12.5208 5.5 12.2833 5.5 12C5.5 11.7167 5.59583 11.4792 5.7875 11.2875C5.97917 11.0958 6.21667 11 6.5 11H11.5V6C11.5 5.71667 11.5958 5.47917 11.7875 5.2875C11.9792 5.09583 12.2167 5 12.5 5C12.7833 5 13.0208 5.09583 13.2125 5.2875C13.4042 5.47917 13.5 5.71667 13.5 6V11H18.5C18.7833 11 19.0208 11.0958 19.2125 11.2875C19.4042 11.4792 19.5 11.7167 19.5 12C19.5 12.2833 19.4042 12.5208 19.2125 12.7125C19.0208 12.9042 18.7833 13 18.5 13H13.5V18C13.5 18.2833 13.4042 18.5208 13.2125 18.7125C13.0208 18.9042 12.7833 19 12.5 19C12.2167 19 11.9792 18.9042 11.7875 18.7125C11.5958 18.5208 11.5 18.2833 11.5 18V13Z" fill="#191919"/>
</g>
</g>
<defs>
<clipPath id="clip0_137_2516">
<rect width="24" height="24" fill="white" transform="translate(0.5)"/>
</clipPath>
</defs>
</svg>
