<svg width="25" height="24" viewBox="0 0 25 24" fill="none" xmlns="http://www.w3.org/2000/svg">
<g clip-path="url(#clip0_21_2587)">
<mask id="mask0_21_2587" style="mask-type:alpha" maskUnits="userSpaceOnUse" x="0" y="0" width="25" height="24">
<rect x="0.583313" width="24" height="24" fill="#D9D9D9"/>
</mask>
<g mask="url(#mask0_21_2587)">
<path d="M11.5833 13H6.58331C6.29998 13 6.06248 12.9042 5.87081 12.7125C5.67915 12.5208 5.58331 12.2833 5.58331 12C5.58331 11.7167 5.67915 11.4792 5.87081 11.2875C6.06248 11.0958 6.29998 11 6.58331 11H11.5833V6C11.5833 5.71667 11.6791 5.47917 11.8708 5.2875C12.0625 5.09583 12.3 5 12.5833 5C12.8666 5 13.1041 5.09583 13.2958 5.2875C13.4875 5.47917 13.5833 5.71667 13.5833 6V11H18.5833C18.8666 11 19.1041 11.0958 19.2958 11.2875C19.4875 11.4792 19.5833 11.7167 19.5833 12C19.5833 12.2833 19.4875 12.5208 19.2958 12.7125C19.1041 12.9042 18.8666 13 18.5833 13H13.5833V18C13.5833 18.2833 13.4875 18.5208 13.2958 18.7125C13.1041 18.9042 12.8666 19 12.5833 19C12.3 19 12.0625 18.9042 11.8708 18.7125C11.6791 18.5208 11.5833 18.2833 11.5833 18V13Z" fill="#191919"/>
</g>
</g>
<defs>
<clipPath id="clip0_21_2587">
<rect width="24" height="24" fill="white" transform="translate(0.583313)"/>
</clipPath>
</defs>
</svg>
