<svg width="25" height="24" viewBox="0 0 25 24" fill="none" xmlns="http://www.w3.org/2000/svg">
<mask id="mask0_21_2595" style="mask-type:alpha" maskUnits="userSpaceOnUse" x="0" y="0" width="25" height="24">
<rect x="0.75" width="24" height="24" fill="#D9D9D9"/>
</mask>
<g mask="url(#mask0_21_2595)">
<path d="M10.575 20.7C8.85833 20.2167 7.45833 19.2708 6.375 17.8625C5.29167 16.4542 4.75 14.8333 4.75 13C4.75 12.05 4.90833 11.1458 5.225 10.2875C5.54167 9.42916 5.99167 8.64165 6.575 7.92499C6.75833 7.72499 6.98333 7.62082 7.25 7.61249C7.51667 7.60416 7.75833 7.70832 7.975 7.92499C8.15833 8.10832 8.25417 8.33332 8.2625 8.59999C8.27083 8.86666 8.18333 9.11666 8 9.34999C7.6 9.86666 7.29167 10.4333 7.075 11.05C6.85833 11.6667 6.75 12.3167 6.75 13C6.75 14.35 7.14583 15.5542 7.9375 16.6125C8.72917 17.6708 9.75 18.3917 11 18.775C11.2167 18.8417 11.3958 18.9667 11.5375 19.15C11.6792 19.3333 11.75 19.5333 11.75 19.75C11.75 20.0833 11.6333 20.3458 11.4 20.5375C11.1667 20.7292 10.8917 20.7833 10.575 20.7ZM14.925 20.7C14.6083 20.7833 14.3333 20.725 14.1 20.525C13.8667 20.325 13.75 20.0583 13.75 19.725C13.75 19.525 13.8208 19.3333 13.9625 19.15C14.1042 18.9667 14.2833 18.8417 14.5 18.775C15.75 18.375 16.7708 17.65 17.5625 16.6C18.3542 15.55 18.75 14.35 18.75 13C18.75 11.3333 18.1667 9.91665 17 8.74999C15.8333 7.58332 14.4167 6.99999 12.75 6.99999H12.675L13.075 7.39999C13.2583 7.58332 13.35 7.81666 13.35 8.09999C13.35 8.38332 13.2583 8.61665 13.075 8.79999C12.8917 8.98332 12.6583 9.07499 12.375 9.07499C12.0917 9.07499 11.8583 8.98332 11.675 8.79999L9.575 6.69999C9.475 6.59999 9.40417 6.49165 9.3625 6.37499C9.32083 6.25832 9.3 6.13332 9.3 5.99999C9.3 5.86665 9.32083 5.74165 9.3625 5.62499C9.40417 5.50832 9.475 5.39999 9.575 5.29999L11.675 3.19999C11.8583 3.01665 12.0917 2.92499 12.375 2.92499C12.6583 2.92499 12.8917 3.01665 13.075 3.19999C13.2583 3.38332 13.35 3.61665 13.35 3.89999C13.35 4.18332 13.2583 4.41665 13.075 4.59999L12.675 4.99999H12.75C14.9833 4.99999 16.875 5.77499 18.425 7.32499C19.975 8.87499 20.75 10.7667 20.75 13C20.75 14.8167 20.2083 16.4333 19.125 17.85C18.0417 19.2667 16.6417 20.2167 14.925 20.7Z" fill="#191919"/>
</g>
</svg>
