<svg width="25" height="24" viewBox="0 0 25 24" fill="none" xmlns="http://www.w3.org/2000/svg">
<mask id="mask0_137_2524" style="mask-type:alpha" maskUnits="userSpaceOnUse" x="0" y="0" width="25" height="24">
<rect x="0.5" width="24" height="24" fill="#D9D9D9"/>
</mask>
<g mask="url(#mask0_137_2524)">
<path d="M10.325 20.7C8.60833 20.2167 7.20833 19.2708 6.125 17.8625C5.04167 16.4542 4.5 14.8333 4.5 13C4.5 12.05 4.65833 11.1458 4.975 10.2875C5.29167 9.42917 5.74167 8.64167 6.325 7.925C6.50833 7.725 6.73333 7.62083 7 7.6125C7.26667 7.60417 7.50833 7.70833 7.725 7.925C7.90833 8.10833 8.00417 8.33333 8.0125 8.6C8.02083 8.86667 7.93333 9.11667 7.75 9.35C7.35 9.86667 7.04167 10.4333 6.825 11.05C6.60833 11.6667 6.5 12.3167 6.5 13C6.5 14.35 6.89583 15.5542 7.6875 16.6125C8.47917 17.6708 9.5 18.3917 10.75 18.775C10.9667 18.8417 11.1458 18.9667 11.2875 19.15C11.4292 19.3333 11.5 19.5333 11.5 19.75C11.5 20.0833 11.3833 20.3458 11.15 20.5375C10.9167 20.7292 10.6417 20.7833 10.325 20.7ZM14.675 20.7C14.3583 20.7833 14.0833 20.725 13.85 20.525C13.6167 20.325 13.5 20.0583 13.5 19.725C13.5 19.525 13.5708 19.3333 13.7125 19.15C13.8542 18.9667 14.0333 18.8417 14.25 18.775C15.5 18.375 16.5208 17.65 17.3125 16.6C18.1042 15.55 18.5 14.35 18.5 13C18.5 11.3333 17.9167 9.91667 16.75 8.75C15.5833 7.58333 14.1667 7 12.5 7H12.425L12.825 7.4C13.0083 7.58333 13.1 7.81667 13.1 8.1C13.1 8.38333 13.0083 8.61667 12.825 8.8C12.6417 8.98333 12.4083 9.075 12.125 9.075C11.8417 9.075 11.6083 8.98333 11.425 8.8L9.325 6.7C9.225 6.6 9.15417 6.49167 9.1125 6.375C9.07083 6.25833 9.05 6.13333 9.05 6C9.05 5.86667 9.07083 5.74167 9.1125 5.625C9.15417 5.50833 9.225 5.4 9.325 5.3L11.425 3.2C11.6083 3.01667 11.8417 2.925 12.125 2.925C12.4083 2.925 12.6417 3.01667 12.825 3.2C13.0083 3.38333 13.1 3.61667 13.1 3.9C13.1 4.18333 13.0083 4.41667 12.825 4.6L12.425 5H12.5C14.7333 5 16.625 5.775 18.175 7.325C19.725 8.875 20.5 10.7667 20.5 13C20.5 14.8167 19.9583 16.4333 18.875 17.85C17.7917 19.2667 16.3917 20.2167 14.675 20.7Z" fill="#1C1B1F"/>
</g>
</svg>
