<svg width="356" height="254" viewBox="0 0 356 254" fill="none" xmlns="http://www.w3.org/2000/svg">
<g clip-path="url(#clip0_137_3515)">
<path d="M283.374 206.902C276.312 206.901 269.479 204.401 264.09 199.846C258.701 195.291 255.105 188.976 253.942 182.024L253.918 181.877L254.013 181.763C255.597 179.868 256.927 177.776 257.972 175.539C256.817 176.796 255.509 177.903 254.079 178.835L253.601 179.152L253.574 178.581C253.55 178.088 253.538 177.598 253.538 177.125C253.535 174.344 253.92 171.577 254.68 168.902C258.144 156.751 258.736 143.703 256.441 130.12C256.048 127.79 255.851 125.433 255.851 123.071C255.855 113.091 259.418 103.437 265.903 95.8395C272.387 88.2419 281.37 83.1961 291.243 81.6057C301.115 80.0154 311.232 81.9843 319.783 87.1599C328.333 92.3355 334.758 100.38 337.908 109.852L338.004 110.141L337.721 110.255C335.6 111.151 333.351 111.708 331.056 111.906C333.481 112.463 335.969 112.701 338.456 112.615L338.719 112.606L338.783 112.861C339.617 116.201 340.038 119.629 340.037 123.071L340.036 123.444C340.028 126.079 340.577 128.687 341.647 131.097C342.716 133.507 344.283 135.665 346.244 137.43C349.431 140.324 351.953 143.873 353.634 147.833C355.316 151.792 356.118 156.068 355.986 160.367C355.854 164.665 354.79 168.884 352.868 172.734C350.946 176.583 348.211 179.971 344.852 182.664L344.696 182.789L344.514 182.707C340.672 180.967 337.873 179.071 335.826 176.809C337.191 179.712 339.028 182.37 341.263 184.674L341.552 184.971L341.193 185.18C336.632 187.834 331.445 189.232 326.164 189.23L326.014 189.23C325.961 189.229 325.907 189.229 325.854 189.229C317.776 189.229 310.12 192.347 304.825 197.797C302.037 200.664 298.703 202.946 295.019 204.509C291.336 206.073 287.376 206.886 283.374 206.902Z" fill="#F2F2F2"/>
<path d="M272.815 253.82C272.685 253.82 272.56 253.773 272.462 253.688C272.365 253.603 272.301 253.486 272.282 253.358C272.259 253.198 270.019 237.068 272.031 215.631C273.89 195.834 279.858 167.318 297.738 143.899C297.781 143.843 297.835 143.796 297.896 143.76C297.957 143.725 298.024 143.702 298.094 143.692C298.164 143.683 298.236 143.687 298.304 143.705C298.372 143.723 298.437 143.755 298.493 143.798C298.549 143.84 298.596 143.894 298.632 143.955C298.667 144.016 298.691 144.083 298.7 144.153C298.71 144.223 298.705 144.294 298.687 144.362C298.669 144.431 298.638 144.495 298.595 144.551C280.869 167.768 274.949 196.074 273.103 215.731C271.103 237.044 273.326 253.047 273.349 253.207C273.359 253.283 273.354 253.36 273.332 253.434C273.31 253.508 273.272 253.577 273.222 253.635C273.171 253.693 273.109 253.739 273.038 253.771C272.968 253.803 272.892 253.82 272.815 253.82Z" fill="#3F3D56"/>
<path d="M281.753 174.866C281.639 174.866 281.528 174.83 281.436 174.763C281.344 174.697 281.276 174.603 281.24 174.495C281.205 174.387 281.205 174.271 281.24 174.163C281.275 174.055 281.344 173.96 281.436 173.894C286.531 170.452 292.034 167.656 297.82 165.57C306.86 162.267 320.606 159.272 334.757 163.767C334.825 163.789 334.887 163.823 334.941 163.869C334.995 163.914 335.04 163.97 335.072 164.032C335.105 164.095 335.124 164.164 335.13 164.234C335.136 164.304 335.128 164.375 335.107 164.442C335.086 164.51 335.051 164.572 335.005 164.626C334.96 164.68 334.904 164.724 334.841 164.757C334.778 164.789 334.71 164.809 334.639 164.815C334.569 164.821 334.498 164.813 334.431 164.791C320.569 160.389 307.072 163.334 298.191 166.579C292.498 168.629 287.082 171.379 282.069 174.763C281.977 174.83 281.867 174.866 281.753 174.866Z" fill="#3F3D56"/>
<path d="M62.9798 213.908C57.9564 213.899 50.0477 214.303 45.7397 216.573C42.4293 218.318 39.4145 220.572 36.8059 223.252C35.8004 224.289 34.8481 225.376 33.9525 226.509C31.4751 218.05 31.1868 209.103 33.1144 200.502C33.25 199.923 33.2054 199.317 32.9867 198.764C32.768 198.211 32.3856 197.738 31.8904 197.407C31.3953 197.077 30.8109 196.905 30.2153 196.914C29.6197 196.924 29.0411 197.114 28.5568 197.46C21.5583 202.554 17.084 211.186 15.9959 219.919C14.6094 231.045 17.8741 242.258 22.4114 252.519L22.41 252.524C22.4015 252.57 22.3888 252.62 22.3763 252.67C22.3595 252.746 22.3386 252.821 22.3218 252.897C22.2923 253.027 22.2589 253.161 22.2293 253.291L22.964 253.257C23.0061 253.278 23.0481 253.295 23.0899 253.316H41.491C41.7349 253.051 41.962 252.771 42.1712 252.478C44.2074 249.691 45.0511 245.916 46.0798 242.51C46.8248 240.043 47.7567 237.637 48.8675 235.311C51.6644 229.47 55.5236 224.197 60.249 219.762C60.4001 219.619 60.5555 219.477 60.7109 219.339C61.5023 218.612 62.7291 217.641 63.9279 216.728C64.1899 216.53 64.3828 216.254 64.4796 215.94C64.5764 215.626 64.5722 215.29 64.4676 214.979C64.3629 214.667 64.1631 214.397 63.8963 214.204C63.6294 214.012 63.3089 213.909 62.9798 213.908Z" fill="#F2F2F2"/>
<path d="M187.221 40.7464C187.654 41.9543 187.593 43.2836 187.053 44.4477C186.513 45.6118 185.536 46.5173 184.333 46.9692C184.067 47.0684 183.793 47.1439 183.513 47.1948L180.732 64.1887L174.209 58.1774L177.85 42.9613C177.715 41.6791 178.091 40.3954 178.897 39.3879C179.703 38.3803 180.874 37.7298 182.157 37.577C183.236 37.4535 184.325 37.7 185.245 38.276C186.165 38.8519 186.862 39.7231 187.221 40.7464Z" fill="#9E616A"/>
<path d="M139.079 79.2528C139.079 79.2528 144.142 72.5765 162.514 72.7594L172.942 68.978L175.325 47.1746L183.666 49.1567L182.475 76.1137L164.601 86.4207L141.166 91.1778L139.079 79.2528Z" fill="#FFB707"/>
<path d="M110.848 243.621L115.661 245.668L125.862 228.115L118.759 225.094L110.848 243.621Z" fill="#9E616A"/>
<path d="M150.619 248.167L155.851 248.166L158.339 228.027L150.618 228.027L150.619 248.167Z" fill="#9E616A"/>
<path d="M150.435 253.613L166.522 253.612V253.409C166.522 251.752 165.863 250.163 164.688 248.991C163.514 247.819 161.921 247.16 160.261 247.16L157.322 244.935L151.839 247.16L150.435 247.16L150.435 253.613Z" fill="#2F2E41"/>
<path d="M107.922 247.108L122.721 253.402L122.801 253.215C123.452 251.691 123.47 249.97 122.85 248.433C122.23 246.895 121.024 245.666 119.496 245.016L117.666 241.819L111.748 241.721L110.456 241.172L107.922 247.108Z" fill="#2F2E41"/>
<path d="M155.751 128.976L163.702 177.294L161.538 184.494L164.377 189.593L160.208 234.378L161.9 238.097L157.171 241.007H147.548L147.038 200.464L144.661 194.511V191.231L139.822 166.508L138.931 194.788L137.524 200.75L138.706 204.994L137.161 207.968L123.922 236.341H113.132L113.966 229.924C112.033 228.948 116.869 226.093 117.333 223.98L115.745 220.412L117.333 213.673L118.79 200.505L117.254 172.708L117.977 135.276L130.599 125.643L155.751 128.976Z" fill="#2F2E41"/>
<path d="M136.389 65.3441C142.411 65.3441 147.293 60.4717 147.293 54.4612C147.293 48.4508 142.411 43.5783 136.389 43.5783C130.367 43.5783 125.485 48.4508 125.485 54.4612C125.485 60.4717 130.367 65.3441 136.389 65.3441Z" fill="#9E616A"/>
<path d="M117.442 149.018C117.747 148.471 117.929 147.864 117.974 147.24C118.019 146.616 117.927 145.989 117.703 145.404C117.479 144.819 117.13 144.29 116.679 143.855C116.228 143.419 115.687 143.088 115.094 142.884L115.068 127.665L108.461 132.03L109.498 145.813C109.22 146.83 109.326 147.913 109.795 148.857C110.264 149.802 111.064 150.542 112.043 150.937C113.022 151.332 114.113 151.355 115.108 151.001C116.103 150.648 116.933 149.942 117.442 149.018Z" fill="#9E616A"/>
<path d="M116.831 81.6794L113.879 78.8396L111.71 80.4017C111.71 80.4017 109.577 82.957 107.87 90.623C106.163 98.2889 107.87 140.452 107.87 140.452L117.258 139.174L115.977 117.028L119.818 98.2889L116.831 81.6794Z" fill="#FFB707"/>
<path d="M112.472 79.5323L122.418 74.7908L129.17 68.54L141.483 68.448L145.455 73.6015L155.942 77.1566L154.194 113.244L155.385 116.019C155.385 116.019 154.555 116.768 154.176 117.186C153.797 117.605 154.7 121.109 154.7 121.109L155.209 124.922L153.797 125.93L155.633 128.095L156.089 131.508C156.089 131.508 124.029 123.555 117.971 136.73C117.651 137.426 118.439 130.623 118.439 130.623L119.228 125.643L118.446 121.173L117.254 119.983L119.253 117.989L117.971 108.524L112.472 79.5323Z" fill="#FFB707"/>
<path d="M216.283 243.407H210.381L207.573 220.687H216.283V243.407Z" fill="#FFB6B6"/>
<path d="M219.398 253.613H215.166L214.41 249.625L212.476 253.613H201.25C200.712 253.613 200.188 253.441 199.754 253.123C199.321 252.805 199.001 252.357 198.841 251.844C198.68 251.331 198.689 250.781 198.864 250.273C199.04 249.766 199.373 249.327 199.816 249.022L208.78 242.843V238.811L218.21 239.373L219.398 253.613Z" fill="#2F2E41"/>
<path d="M273.683 231.72L268.606 234.725L254.578 216.612L262.07 212.178L273.683 231.72Z" fill="#FFB6B6"/>
<path d="M281.578 238.912L277.938 241.067L275.249 238.021L275.623 242.437L265.968 248.152C265.505 248.426 264.967 248.545 264.431 248.492C263.896 248.439 263.391 248.216 262.992 247.857C262.592 247.497 262.318 247.02 262.209 246.494C262.101 245.968 262.163 245.421 262.388 244.933L266.941 235.054L264.88 231.586L273.277 227.269L281.578 238.912Z" fill="#2F2E41"/>
<path d="M213.649 98.1351L210.781 116.383L238.028 116.741L234.443 99.2086L213.649 98.1351Z" fill="#FFB6B6"/>
<path d="M210.676 116.153L202.894 134.989L202.327 185.364L208.968 233.46H216.317L219.329 186.148L226.735 153.774L234.039 187.633L256.752 220.775H267.912L247.394 184.254L245.019 144.471C245.019 144.471 246.499 127.594 238.924 117.636L237.08 112.319L210.676 116.153Z" fill="#2F2E41"/>
<path d="M248.796 129.905C248.037 129.699 247.333 129.329 246.733 128.822C246.133 128.315 245.652 127.682 245.323 126.969C244.995 126.256 244.827 125.48 244.831 124.695C244.836 123.911 245.013 123.136 245.35 122.427L233.758 84.711L242.284 83.0242L252.885 119.994C254.042 120.638 254.921 121.682 255.357 122.93C255.793 124.177 255.756 125.541 255.251 126.763C254.747 127.984 253.812 128.979 252.622 129.558C251.432 130.138 250.071 130.261 248.796 129.905Z" fill="#FFB6B6"/>
<path d="M235.045 111.384L214.674 101.905C214.137 101.893 213.619 101.706 213.199 101.373C212.778 101.04 212.479 100.578 212.347 100.058C211.34 96.0798 209.124 91.6572 210.299 81.3297C210.531 79.3291 211.163 77.3951 212.157 75.6424C213.151 73.8896 214.487 72.3536 216.086 71.1253C217.685 69.8969 219.515 69.0011 221.467 68.4909C223.419 67.9807 225.454 67.8665 227.451 68.155C229.558 68.456 231.577 69.1982 233.376 70.3328C235.175 71.4675 236.714 72.969 237.891 74.7388C239.068 76.5086 239.856 78.5068 240.205 80.6022C240.553 82.6976 240.454 84.8428 239.914 86.8973C237.549 95.8579 237.803 105.44 237.533 109.123C237.493 109.655 237.28 110.16 236.926 110.56C236.571 110.96 236.095 111.233 235.571 111.338C235.415 111.369 235.256 111.385 235.097 111.385C235.079 111.385 235.062 111.385 235.045 111.384Z" fill="#FFB707"/>
<path d="M191.184 48.0402C191.071 48.2926 190.938 48.5357 190.787 48.7672L200.528 71.5621L206.515 72.2951L206.587 81.4578L195.862 81.1881C194.995 81.1663 194.159 80.8646 193.479 80.3283C192.799 79.7919 192.312 79.0499 192.09 78.2135L184.871 50.9565C183.848 50.652 182.942 50.044 182.274 49.2133C181.606 48.3826 181.207 47.3686 181.131 46.3062C181.054 45.2438 181.304 44.1833 181.846 43.2657C182.388 42.3482 183.197 41.6171 184.166 41.1698C185.134 40.7224 186.216 40.5799 187.268 40.7613C188.32 40.9427 189.291 41.4394 190.053 42.1852C190.815 42.931 191.331 43.8907 191.533 44.9366C191.736 45.9825 191.614 47.065 191.184 48.0402Z" fill="#FFB6B6"/>
<path d="M201.509 70.7497C201.751 70.5354 202.037 70.3758 202.347 70.2818C202.656 70.1878 202.983 70.1616 203.304 70.205L214.509 71.719C216.166 71.6975 217.763 72.3325 218.951 73.4847C220.139 74.6369 220.821 76.2123 220.847 77.8654C220.873 79.5185 220.241 81.1145 219.09 82.3033C217.939 83.4921 216.362 84.1768 214.706 84.2072L203.506 86.0091C203.186 86.0605 202.859 86.0426 202.547 85.9565C202.235 85.8704 201.945 85.7182 201.697 85.5102C201.45 85.3023 201.25 85.0435 201.111 84.7514C200.972 84.4594 200.899 84.141 200.894 83.8179L200.749 72.462C200.745 72.1389 200.811 71.8186 200.942 71.5231C201.073 71.2276 201.266 70.9638 201.509 70.7497Z" fill="#FFB707"/>
<path d="M233.239 94.2646C232.952 94.1142 232.702 93.9039 232.504 93.648C232.306 93.392 232.166 93.0966 232.094 92.7817L229.548 81.7855C228.943 80.2469 228.973 78.5313 229.633 77.0149C230.292 75.4985 231.527 74.305 233.067 73.696C234.607 73.087 236.326 73.1123 237.847 73.7663C239.369 74.4202 240.568 75.6495 241.183 77.1846L246.833 87.0024C246.995 87.2826 247.093 87.5942 247.123 87.916C247.153 88.2377 247.113 88.5621 247.005 88.867C246.898 89.1719 246.726 89.4502 246.502 89.6828C246.277 89.9155 246.005 90.0971 245.703 90.2152L235.112 94.3679C234.811 94.4862 234.488 94.5382 234.164 94.5204C233.841 94.5026 233.525 94.4153 233.239 94.2646Z" fill="#FFB707"/>
<path d="M232.787 64.2772C238.37 61.2313 240.422 54.2452 237.37 48.6732C234.318 43.1013 227.318 41.0535 221.736 44.0994C216.153 47.1453 214.101 54.1314 217.153 59.7034C220.205 65.2753 227.204 67.3231 232.787 64.2772Z" fill="#FFB6B6"/>
<path d="M219.336 49.5662C216.865 49.5523 214.393 49.5384 211.921 49.5245C211.745 47.8432 212.495 46.1705 213.587 44.8788C214.68 43.587 216.094 42.6144 217.491 41.6579C218.909 40.6868 220.378 39.6937 222.063 39.3543C223.476 39.0699 224.936 39.2673 226.363 39.4653C228.256 39.728 230.149 39.9907 232.041 40.2534C234.119 40.5417 236.293 40.8679 237.98 42.1115C240.263 43.7932 239.679 47.6751 241.869 49.4749C248.482 54.9108 245.804 59.658 245.928 64.6128C237.936 65.4494 229.945 66.2861 221.953 67.1227C221.086 67.2718 220.197 67.246 219.34 67.0469C218.501 66.7908 217.731 66.0974 217.669 65.2237C217.6 64.2479 218.376 63.4491 219.006 62.6996C220.508 60.8414 221.41 58.5716 221.592 56.1906C221.774 53.8096 221.228 51.4296 220.025 49.3654L219.336 49.5662Z" fill="#2F2E41"/>
<path d="M133.599 64.8112C133.553 64.7089 133.506 64.6062 133.46 64.5031C133.478 64.5037 133.495 64.5062 133.513 64.5067L133.599 64.8112Z" fill="#2F2E41"/>
<path d="M125.181 44.0732C125.699 43.5857 126.372 43.2953 127.082 43.2528C127.788 43.2755 128.503 43.9111 128.357 44.6C129.652 42.3113 131.713 40.551 134.179 39.6281C136.645 38.7053 139.358 38.6788 141.842 39.5533C143.594 40.1704 145.313 41.4049 145.715 43.2156C145.755 43.691 145.897 44.1522 146.132 44.5675C146.335 44.7896 146.6 44.9472 146.892 45.0212C147.185 45.0951 147.492 45.0821 147.777 44.9837L147.795 44.9786C147.892 44.9453 147.998 44.9421 148.097 44.9692C148.197 44.9963 148.286 45.0526 148.353 45.1308C148.42 45.209 148.462 45.3055 148.473 45.4077C148.485 45.51 148.465 45.6133 148.417 45.7044L147.921 46.6274C148.546 46.7665 149.196 46.7527 149.814 46.5872C149.917 46.5603 150.026 46.5658 150.125 46.603C150.225 46.6401 150.31 46.707 150.37 46.7946C150.43 46.8822 150.461 46.9861 150.46 47.0921C150.458 47.1981 150.424 47.301 150.361 47.3867C149.537 48.512 148.461 49.4297 147.219 50.0668C145.977 50.704 144.603 51.0431 143.207 51.057C141.226 51.0449 139.224 50.3634 137.296 50.8181C136.55 50.994 135.853 51.3344 135.256 51.8142C134.659 52.2941 134.177 52.9012 133.846 53.5911C133.515 54.281 133.342 55.0361 133.342 55.8011C133.341 56.5661 133.512 57.3215 133.842 58.0119C133.25 57.3653 132.105 57.5184 131.499 58.1524C131.22 58.4918 131.014 58.8848 130.893 59.3069C130.772 59.7291 130.74 60.1715 130.797 60.6068C130.959 61.9399 131.355 63.234 131.969 64.4293C129.626 64.3574 127.361 63.5695 125.481 62.1721C123.602 60.7748 122.197 58.8352 121.456 56.6155C120.716 54.3957 120.677 52.0028 121.343 49.7598C122.009 47.5168 123.349 45.5319 125.181 44.0732Z" fill="#2F2E41"/>
<path d="M341.832 254H0.51784C0.392645 254 0.272704 253.95 0.184306 253.861C0.095908 253.773 0.0462646 253.653 0.0462646 253.528C0.0462646 253.403 0.095908 253.283 0.184306 253.195C0.272704 253.106 0.392645 253.056 0.51784 253.056H341.832C341.894 253.056 341.956 253.068 342.013 253.091C342.071 253.115 342.123 253.15 342.167 253.194C342.211 253.238 342.246 253.29 342.27 253.347C342.294 253.404 342.306 253.466 342.306 253.528C342.306 253.59 342.294 253.652 342.27 253.709C342.246 253.766 342.211 253.818 342.167 253.862C342.123 253.906 342.071 253.941 342.013 253.964C341.956 253.988 341.894 254 341.832 254Z" fill="#CCCCCC"/>
<path d="M81.9965 4.70572C72.1789 3.38129 60.9705 8.67737 58.426 18.2331C57.7847 16.5341 56.6189 15.0826 55.0969 14.0881C53.5749 13.0937 51.7756 12.6079 49.9588 12.701C48.1421 12.794 46.402 13.4611 44.99 14.6058C43.578 15.7504 42.5672 17.3135 42.1035 19.0691L43.2275 19.8725C64.2663 24.4133 86.0448 24.315 107.042 19.5846C100.213 12.4216 91.8141 6.03013 81.9965 4.70572Z" fill="#F0F0F0"/>
<path d="M39.893 31.6626C30.0754 30.3382 18.867 35.6343 16.3225 45.1901C15.6812 43.491 14.5154 42.0395 12.9934 41.045C11.4714 40.0506 9.67204 39.5648 7.8553 39.6579C6.03857 39.7509 4.2985 40.418 2.88649 41.5627C1.47448 42.7073 0.463641 44.2704 0 46.026L1.12397 46.8294C22.1628 51.3702 43.9413 51.2719 64.9381 46.5415C58.1091 39.3785 49.7106 32.987 39.893 31.6626Z" fill="#F0F0F0"/>
</g>
<defs>
<clipPath id="clip0_137_3515">
<rect width="356" height="254" fill="white"/>
</clipPath>
</defs>
</svg>
