<svg width="25" height="24" viewBox="0 0 25 24" fill="none" xmlns="http://www.w3.org/2000/svg">
<path d="M11.2007 17.9014C9.25808 17.9014 7.61397 17.2286 6.26838 15.883C4.92279 14.5375 4.25 12.8933 4.25 10.9507C4.25 9.00808 4.92279 7.36397 6.26838 6.01838C7.61397 4.67279 9.25808 4 11.2007 4C13.1433 4 14.7875 4.67279 16.133 6.01838C17.4786 7.36397 18.1514 9.00808 18.1514 10.9507C18.1514 11.7349 18.0267 12.4745 17.7772 13.1696C17.5276 13.8647 17.189 14.4795 16.7613 15.0142L19.9559 18.2089C20.152 18.4049 20.25 18.6544 20.25 18.9574C20.25 19.2604 20.152 19.5099 19.9559 19.7059C19.7599 19.902 19.5104 20 19.2074 20C18.9044 20 18.6549 19.902 18.4589 19.7059L15.2642 16.5113C14.7295 16.939 14.1147 17.2776 13.4196 17.5272C12.7245 17.7767 11.9849 17.9014 11.2007 17.9014ZM11.2007 15.7627C12.5374 15.7627 13.6736 15.2949 14.6092 14.3592C15.5449 13.4236 16.0127 12.2874 16.0127 10.9507C16.0127 9.61404 15.5449 8.47786 14.6092 7.54219C13.6736 6.60652 12.5374 6.13868 11.2007 6.13868C9.86404 6.13868 8.72786 6.60652 7.79219 7.54219C6.85652 8.47786 6.38868 9.61404 6.38868 10.9507C6.38868 12.2874 6.85652 13.4236 7.79219 14.3592C8.72786 15.2949 9.86404 15.7627 11.2007 15.7627Z" fill="#191919"/>
</svg>
