<svg width="25" height="24" viewBox="0 0 25 24" fill="none" xmlns="http://www.w3.org/2000/svg">
<g clip-path="url(#clip0_21_2579)">
<mask id="mask0_21_2579" style="mask-type:alpha" maskUnits="userSpaceOnUse" x="0" y="0" width="25" height="24">
<rect x="0.416626" width="24" height="24" fill="#D9D9D9"/>
</mask>
<g mask="url(#mask0_21_2579)">
<path d="M9.96664 12L17.3166 19.35C17.5666 19.6 17.6875 19.8917 17.6791 20.225C17.6708 20.5583 17.5416 20.85 17.2916 21.1C17.0416 21.35 16.75 21.475 16.4166 21.475C16.0833 21.475 15.7916 21.35 15.5416 21.1L7.84164 13.425C7.64164 13.225 7.49164 13 7.39164 12.75C7.29164 12.5 7.24164 12.25 7.24164 12C7.24164 11.75 7.29164 11.5 7.39164 11.25C7.49164 11 7.64164 10.775 7.84164 10.575L15.5416 2.87499C15.7916 2.62499 16.0875 2.50415 16.4291 2.51249C16.7708 2.52082 17.0666 2.64999 17.3166 2.89999C17.5666 3.14999 17.6916 3.44165 17.6916 3.77499C17.6916 4.10832 17.5666 4.39999 17.3166 4.64999L9.96664 12Z" fill="#191919"/>
</g>
</g>
<defs>
<clipPath id="clip0_21_2579">
<rect width="24" height="24" fill="white" transform="translate(0.416626)"/>
</clipPath>
</defs>
</svg>
