<svg width="25" height="24" viewBox="0 0 25 24" fill="none" xmlns="http://www.w3.org/2000/svg">
<g clip-path="url(#clip0_21_2602)">
<mask id="mask0_21_2602" style="mask-type:alpha" maskUnits="userSpaceOnUse" x="0" y="0" width="25" height="24">
<rect x="0.916748" width="24" height="24" fill="#D9D9D9"/>
</mask>
<g mask="url(#mask0_21_2602)">
<path d="M5.97925 17.9106C5.67821 17.9106 5.42586 17.8119 5.22222 17.6145C5.01857 17.4171 4.91675 17.1725 4.91675 16.8808C4.91675 16.589 5.01857 16.3444 5.22222 16.147C5.42586 15.9496 5.67821 15.8509 5.97925 15.8509H7.04175V10.2385C7.04175 8.81392 7.48446 7.54811 8.36987 6.44107C9.25529 5.33402 10.4063 4.60886 11.823 4.26559V3.54472C11.823 3.11563 11.9779 2.7509 12.2878 2.45054C12.5977 2.15018 12.974 2 13.4167 2C13.8595 2 14.2358 2.15018 14.5457 2.45054C14.8555 2.7509 15.0105 3.11563 15.0105 3.54472V4.26559C16.4272 4.60886 17.5782 5.33402 18.4636 6.44107C19.349 7.54811 19.7917 8.81392 19.7917 10.2385V15.8509H20.8542C21.1553 15.8509 21.4076 15.9496 21.6113 16.147C21.8149 16.3444 21.9167 16.589 21.9167 16.8808C21.9167 17.1725 21.8149 17.4171 21.6113 17.6145C21.4076 17.8119 21.1553 17.9106 20.8542 17.9106H5.97925ZM13.4167 21C12.8324 21 12.3321 20.7983 11.916 20.395C11.4998 19.9916 11.2917 19.5068 11.2917 18.9404H15.5417C15.5417 19.5068 15.3337 19.9916 14.9175 20.395C14.5014 20.7983 14.0011 21 13.4167 21ZM9.16675 15.8509H17.6667V10.2385C17.6667 9.1057 17.2506 8.13596 16.4183 7.32928C15.586 6.52259 14.5855 6.11925 13.4167 6.11925C12.248 6.11925 11.2475 6.52259 10.4152 7.32928C9.58289 8.13596 9.16675 9.1057 9.16675 10.2385V15.8509Z" fill="#191919"/>
<path d="M23.9167 4C23.9167 5.10457 23.0213 6 21.9167 6C20.8122 6 19.9167 5.10457 19.9167 4C19.9167 2.89543 20.8122 2 21.9167 2C23.0213 2 23.9167 2.89543 23.9167 4Z" fill="#FA7F3A"/>
</g>
</g>
<defs>
<clipPath id="clip0_21_2602">
<rect width="24" height="24" fill="white" transform="translate(0.916748)"/>
</clipPath>
</defs>
</svg>
