<svg width="25" height="24" viewBox="0 0 25 24" fill="none" xmlns="http://www.w3.org/2000/svg">
<g clip-path="url(#clip0_137_2531)">
<mask id="mask0_137_2531" style="mask-type:alpha" maskUnits="userSpaceOnUse" x="0" y="0" width="25" height="24">
<rect x="0.5" width="24" height="24" fill="#D9D9D9"/>
</mask>
<g mask="url(#mask0_137_2531)">
<path d="M5.5625 17.9106C5.26146 17.9106 5.00911 17.8119 4.80547 17.6145C4.60182 17.4171 4.5 17.1725 4.5 16.8808C4.5 16.589 4.60182 16.3444 4.80547 16.147C5.00911 15.9496 5.26146 15.8509 5.5625 15.8509H6.625V10.2385C6.625 8.81392 7.06771 7.54811 7.95312 6.44107C8.83854 5.33402 9.98958 4.60886 11.4062 4.26559V3.54472C11.4062 3.11563 11.5612 2.7509 11.8711 2.45054C12.181 2.15018 12.5573 2 13 2C13.4427 2 13.819 2.15018 14.1289 2.45054C14.4388 2.7509 14.5938 3.11563 14.5938 3.54472V4.26559C16.0104 4.60886 17.1615 5.33402 18.0469 6.44107C18.9323 7.54811 19.375 8.81392 19.375 10.2385V15.8509H20.4375C20.7385 15.8509 20.9909 15.9496 21.1945 16.147C21.3982 16.3444 21.5 16.589 21.5 16.8808C21.5 17.1725 21.3982 17.4171 21.1945 17.6145C20.9909 17.8119 20.7385 17.9106 20.4375 17.9106H5.5625ZM13 21C12.4156 21 11.9154 20.7983 11.4992 20.395C11.0831 19.9916 10.875 19.5068 10.875 18.9404H15.125C15.125 19.5068 14.9169 19.9916 14.5008 20.395C14.0846 20.7983 13.5844 21 13 21ZM8.75 15.8509H17.25V10.2385C17.25 9.1057 16.8339 8.13596 16.0016 7.32928C15.1693 6.52259 14.1687 6.11925 13 6.11925C11.8312 6.11925 10.8307 6.52259 9.99844 7.32928C9.16615 8.13596 8.75 9.1057 8.75 10.2385V15.8509Z" fill="#191919"/>
<path d="M23.5 4C23.5 5.10457 22.6046 6 21.5 6C20.3954 6 19.5 5.10457 19.5 4C19.5 2.89543 20.3954 2 21.5 2C22.6046 2 23.5 2.89543 23.5 4Z" fill="#FFB707"/>
</g>
</g>
<defs>
<clipPath id="clip0_137_2531">
<rect width="24" height="24" fill="white" transform="translate(0.5)"/>
</clipPath>
</defs>
</svg>
