<svg width="22" height="20" viewBox="0 0 22 20" fill="none" xmlns="http://www.w3.org/2000/svg">
<path d="M3.125 18V10.625L2.125 11.4C1.89166 11.5667 1.64166 11.6333 1.375 11.6C1.10833 11.5667 0.891663 11.4333 0.724996 11.2C0.558329 10.9667 0.491663 10.7167 0.524996 10.45C0.558329 10.1833 0.683329 9.96667 0.899996 9.8L3.125 8.1V6C3.125 5.71667 3.22083 5.47917 3.4125 5.2875C3.60416 5.09583 3.84166 5 4.125 5C4.40833 5 4.64583 5.09583 4.8375 5.2875C5.02916 5.47917 5.125 5.71667 5.125 6V6.575L9.9 2.925C10.2667 2.64167 10.675 2.5 11.125 2.5C11.575 2.5 11.9833 2.64167 12.35 2.925L21.35 9.8C21.5667 9.96667 21.6917 10.1833 21.725 10.45C21.7583 10.7167 21.6917 10.9667 21.525 11.2C21.3583 11.4167 21.1417 11.5417 20.875 11.575C20.6083 11.6083 20.3667 11.5417 20.15 11.375L19.125 10.625V18C19.125 18.55 18.9292 19.0208 18.5375 19.4125C18.1458 19.8042 17.675 20 17.125 20H5.125C4.575 20 4.10416 19.8042 3.7125 19.4125C3.32083 19.0208 3.125 18.55 3.125 18ZM5.125 18H10.125V15C10.125 14.7167 10.2208 14.4792 10.4125 14.2875C10.6042 14.0958 10.8417 14 11.125 14C11.4083 14 11.6458 14.0958 11.8375 14.2875C12.0292 14.4792 12.125 14.7167 12.125 15V18H17.125V9.1L11.125 4.525L5.125 9.1V18ZM4.425 4C4.04166 4 3.74583 3.84167 3.5375 3.525C3.32916 3.20833 3.31666 2.88333 3.5 2.55C3.78333 2.06667 4.15416 1.6875 4.6125 1.4125C5.07083 1.1375 5.575 1 6.125 1C6.30833 1 6.48333 0.954167 6.65 0.8625C6.81666 0.770833 6.94166 0.641667 7.025 0.475C7.10833 0.325 7.22083 0.208333 7.3625 0.125C7.50416 0.0416667 7.66666 0 7.85 0C8.23333 0 8.525 0.158333 8.725 0.475C8.925 0.791667 8.93333 1.11667 8.75 1.45C8.46666 1.93333 8.09583 2.3125 7.6375 2.5875C7.17916 2.8625 6.675 3 6.125 3C5.94166 3 5.76666 3.04167 5.6 3.125C5.43333 3.20833 5.30833 3.34167 5.225 3.525C5.14166 3.675 5.03333 3.79167 4.9 3.875C4.76666 3.95833 4.60833 4 4.425 4Z" fill="#FA7F3A"/>
</svg>
