<svg width="25" height="24" viewBox="0 0 25 24" fill="none" xmlns="http://www.w3.org/2000/svg">
<mask id="mask0_35_685" style="mask-type:alpha" maskUnits="userSpaceOnUse" x="0" y="0" width="25" height="24">
<rect x="0.083313" width="24" height="24" fill="#D9D9D9"/>
</mask>
<g mask="url(#mask0_35_685)">
<path d="M4.08331 19V11.625L3.08331 12.4C2.84998 12.5667 2.59998 12.6333 2.33331 12.6C2.06664 12.5667 1.84998 12.4333 1.68331 12.2C1.51664 11.9667 1.44998 11.7167 1.48331 11.45C1.51664 11.1833 1.64164 10.9667 1.85831 10.8L4.08331 9.1V7C4.08331 6.71667 4.17914 6.47917 4.37081 6.2875C4.56248 6.09583 4.79998 6 5.08331 6C5.36664 6 5.60414 6.09583 5.79581 6.2875C5.98748 6.47917 6.08331 6.71667 6.08331 7V7.575L10.8583 3.925C11.225 3.64167 11.6333 3.5 12.0833 3.5C12.5333 3.5 12.9416 3.64167 13.3083 3.925L22.3083 10.8C22.525 10.9667 22.65 11.1833 22.6833 11.45C22.7166 11.7167 22.65 11.9667 22.4833 12.2C22.3166 12.4167 22.1 12.5417 21.8333 12.575C21.5666 12.6083 21.325 12.5417 21.1083 12.375L20.0833 11.625V19C20.0833 19.55 19.8875 20.0208 19.4958 20.4125C19.1041 20.8042 18.6333 21 18.0833 21H6.08331C5.53331 21 5.06248 20.8042 4.67081 20.4125C4.27914 20.0208 4.08331 19.55 4.08331 19ZM6.08331 19H11.0833V16C11.0833 15.7167 11.1791 15.4792 11.3708 15.2875C11.5625 15.0958 11.8 15 12.0833 15C12.3666 15 12.6041 15.0958 12.7958 15.2875C12.9875 15.4792 13.0833 15.7167 13.0833 16V19H18.0833V10.1L12.0833 5.525L6.08331 10.1V19ZM5.38331 5C4.99998 5 4.70414 4.84167 4.49581 4.525C4.28748 4.20833 4.27498 3.88333 4.45831 3.55C4.74164 3.06667 5.11248 2.6875 5.57081 2.4125C6.02914 2.1375 6.53331 2 7.08331 2C7.26664 2 7.44164 1.95417 7.60831 1.8625C7.77498 1.77083 7.89998 1.64167 7.98331 1.475C8.06664 1.325 8.17914 1.20833 8.32081 1.125C8.46248 1.04167 8.62498 1 8.80831 1C9.19164 1 9.48331 1.15833 9.68331 1.475C9.88331 1.79167 9.89164 2.11667 9.70831 2.45C9.42498 2.93333 9.05414 3.3125 8.59581 3.5875C8.13748 3.8625 7.63331 4 7.08331 4C6.89998 4 6.72498 4.04167 6.55831 4.125C6.39164 4.20833 6.26664 4.34167 6.18331 4.525C6.09998 4.675 5.99164 4.79167 5.85831 4.875C5.72498 4.95833 5.56664 5 5.38331 5Z" fill="#191919"/>
</g>
</svg>
