<svg width="24" height="24" viewBox="0 0 24 24" fill="none" xmlns="http://www.w3.org/2000/svg">
<g clip-path="url(#clip0_137_2490)">
<mask id="mask0_137_2490" style="mask-type:alpha" maskUnits="userSpaceOnUse" x="0" y="0" width="24" height="24">
<rect width="24" height="24" fill="#D9D9D9"/>
</mask>
<g mask="url(#mask0_137_2490)">
<path d="M12.8337 20.7417C12.4382 21.3386 11.5618 21.3386 11.1664 20.7417L9.35 18H4C3.45 18 2.97917 17.8042 2.5875 17.4125C2.19583 17.0208 2 16.55 2 16V4C2 3.45 2.19583 2.97917 2.5875 2.5875C2.97917 2.19583 3.45 2 4 2H20C20.55 2 21.0208 2.19583 21.4125 2.5875C21.8042 2.97917 22 3.45 22 4V16C22 16.55 21.8042 17.0208 21.4125 17.4125C21.0208 17.8042 20.55 18 20 18H14.65L12.8337 20.7417ZM4 16H20V4H4V16Z" fill="#191919"/>
</g>
</g>
<defs>
<clipPath id="clip0_137_2490">
<rect width="24" height="24" fill="white"/>
</clipPath>
</defs>
</svg>
