<svg width="25" height="24" viewBox="0 0 25 24" fill="none" xmlns="http://www.w3.org/2000/svg">
<g clip-path="url(#clip0_21_2591)">
<mask id="mask0_21_2591" style="mask-type:alpha" maskUnits="userSpaceOnUse" x="0" y="0" width="25" height="24">
<rect x="0.666626" width="24" height="24" fill="#D9D9D9"/>
</mask>
<g mask="url(#mask0_21_2591)">
<path d="M10.2166 15.15L18.6916 6.675C18.8916 6.475 19.1291 6.375 19.4041 6.375C19.6791 6.375 19.9166 6.475 20.1166 6.675C20.3166 6.875 20.4166 7.1125 20.4166 7.3875C20.4166 7.6625 20.3166 7.9 20.1166 8.1L10.9166 17.3C10.7166 17.5 10.4833 17.6 10.2166 17.6C9.94992 17.6 9.71659 17.5 9.51659 17.3L5.21659 13C5.01659 12.8 4.92076 12.5625 4.92909 12.2875C4.93742 12.0125 5.04159 11.775 5.24159 11.575C5.44159 11.375 5.67909 11.275 5.95409 11.275C6.22909 11.275 6.46659 11.375 6.66659 11.575L10.2166 15.15Z" fill="#191919"/>
</g>
</g>
<defs>
<clipPath id="clip0_21_2591">
<rect width="24" height="24" fill="white" transform="translate(0.666626)"/>
</clipPath>
</defs>
</svg>
