<svg width="21" height="20" viewBox="0 0 21 20" fill="none" xmlns="http://www.w3.org/2000/svg">
<path d="M4.725 15.1C5.575 14.45 6.525 13.9375 7.575 13.5625C8.625 13.1875 9.725 13 10.875 13C12.025 13 13.125 13.1875 14.175 13.5625C15.225 13.9375 16.175 14.45 17.025 15.1C17.6083 14.4167 18.0625 13.6417 18.3875 12.775C18.7125 11.9083 18.875 10.9833 18.875 10C18.875 7.78333 18.0958 5.89583 16.5375 4.3375C14.9792 2.77917 13.0917 2 10.875 2C8.65833 2 6.77083 2.77917 5.2125 4.3375C3.65417 5.89583 2.875 7.78333 2.875 10C2.875 10.9833 3.0375 11.9083 3.3625 12.775C3.6875 13.6417 4.14167 14.4167 4.725 15.1ZM10.875 11C9.89167 11 9.0625 10.6625 8.3875 9.9875C7.7125 9.3125 7.375 8.48333 7.375 7.5C7.375 6.51667 7.7125 5.6875 8.3875 5.0125C9.0625 4.3375 9.89167 4 10.875 4C11.8583 4 12.6875 4.3375 13.3625 5.0125C14.0375 5.6875 14.375 6.51667 14.375 7.5C14.375 8.48333 14.0375 9.3125 13.3625 9.9875C12.6875 10.6625 11.8583 11 10.875 11ZM10.875 20C9.49167 20 8.19167 19.7375 6.975 19.2125C5.75833 18.6875 4.7 17.975 3.8 17.075C2.9 16.175 2.1875 15.1167 1.6625 13.9C1.1375 12.6833 0.875 11.3833 0.875 10C0.875 8.61667 1.1375 7.31667 1.6625 6.1C2.1875 4.88333 2.9 3.825 3.8 2.925C4.7 2.025 5.75833 1.3125 6.975 0.7875C8.19167 0.2625 9.49167 0 10.875 0C12.2583 0 13.5583 0.2625 14.775 0.7875C15.9917 1.3125 17.05 2.025 17.95 2.925C18.85 3.825 19.5625 4.88333 20.0875 6.1C20.6125 7.31667 20.875 8.61667 20.875 10C20.875 11.3833 20.6125 12.6833 20.0875 13.9C19.5625 15.1167 18.85 16.175 17.95 17.075C17.05 17.975 15.9917 18.6875 14.775 19.2125C13.5583 19.7375 12.2583 20 10.875 20ZM10.875 18C11.7583 18 12.5917 17.8708 13.375 17.6125C14.1583 17.3542 14.875 16.9833 15.525 16.5C14.875 16.0167 14.1583 15.6458 13.375 15.3875C12.5917 15.1292 11.7583 15 10.875 15C9.99167 15 9.15833 15.1292 8.375 15.3875C7.59167 15.6458 6.875 16.0167 6.225 16.5C6.875 16.9833 7.59167 17.3542 8.375 17.6125C9.15833 17.8708 9.99167 18 10.875 18ZM10.875 9C11.3083 9 11.6667 8.85833 11.95 8.575C12.2333 8.29167 12.375 7.93333 12.375 7.5C12.375 7.06667 12.2333 6.70833 11.95 6.425C11.6667 6.14167 11.3083 6 10.875 6C10.4417 6 10.0833 6.14167 9.8 6.425C9.51667 6.70833 9.375 7.06667 9.375 7.5C9.375 7.93333 9.51667 8.29167 9.8 8.575C10.0833 8.85833 10.4417 9 10.875 9Z" fill="#9D9D9D"/>
</svg>
