<svg width="25" height="24" viewBox="0 0 25 24" fill="none" xmlns="http://www.w3.org/2000/svg">
<g clip-path="url(#clip0_137_2508)">
<mask id="mask0_137_2508" style="mask-type:alpha" maskUnits="userSpaceOnUse" x="0" y="0" width="25" height="24">
<rect x="0.5" width="24" height="24" fill="#D9D9D9"/>
</mask>
<g mask="url(#mask0_137_2508)">
<path d="M10.05 12L17.4 19.35C17.65 19.6 17.7708 19.8917 17.7625 20.225C17.7542 20.5583 17.625 20.85 17.375 21.1C17.125 21.35 16.8333 21.475 16.5 21.475C16.1667 21.475 15.875 21.35 15.625 21.1L7.925 13.425C7.725 13.225 7.575 13 7.475 12.75C7.375 12.5 7.325 12.25 7.325 12C7.325 11.75 7.375 11.5 7.475 11.25C7.575 11 7.725 10.775 7.925 10.575L15.625 2.875C15.875 2.625 16.1708 2.50417 16.5125 2.5125C16.8542 2.52083 17.15 2.65 17.4 2.9C17.65 3.15 17.775 3.44167 17.775 3.775C17.775 4.10833 17.65 4.4 17.4 4.65L10.05 12Z" fill="#191919"/>
</g>
</g>
<defs>
<clipPath id="clip0_137_2508">
<rect width="24" height="24" fill="white" transform="translate(0.5)"/>
</clipPath>
</defs>
</svg>
