<svg width="24" height="24" viewBox="0 0 24 24" fill="none" xmlns="http://www.w3.org/2000/svg">
<path fill-rule="evenodd" clip-rule="evenodd" d="M12 24C15.0886 24 17.9046 22.8332 20.0314 20.9163L18.9418 19.8267C17.0949 21.466 14.6637 22.4615 12 22.4615C6.22224 22.4615 1.53845 17.7777 1.53845 12C1.53845 9.33627 2.53399 6.90508 4.17328 5.05817L3.08374 3.96864C1.16684 6.09538 0 8.91142 0 12C0 18.6274 5.37258 24 12 24ZM24 12C24 15.0891 22.8328 17.9056 20.9153 20.0324L19.8258 18.9429C21.4656 17.0958 22.4615 14.6642 22.4615 12C22.4615 6.22224 17.7777 1.53845 12 1.53845C9.33576 1.53845 6.90414 2.53437 5.05711 4.17423L3.96758 3.0847C6.09444 1.16723 8.91091 0 12 0C18.6274 0 24 5.37258 24 12Z" fill="#9C9C9C"/>
<path fill-rule="evenodd" clip-rule="evenodd" d="M15.7044 10.9989L14.012 13.1291L10.6332 9.7503L13.7919 5.77429L12.819 10.3909L15.7044 10.9989ZM8.04993 13.002L9.85058 10.7354L13.2294 14.1143L9.96243 18.2266L10.9353 13.6101L8.04993 13.002Z" fill="#F8F8F8"/>
<path d="M1.53784 1.53885L22.6148 22.6158" stroke="#FFFEFF"/>
</svg>
