<svg width="25" height="24" viewBox="0 0 25 24" fill="none" xmlns="http://www.w3.org/2000/svg">
<mask id="mask0_35_363" style="mask-type:alpha" maskUnits="userSpaceOnUse" x="0" y="0" width="25" height="24">
<rect x="0.333313" width="24" height="24" fill="#D9D9D9"/>
</mask>
<g mask="url(#mask0_35_363)">
<path d="M22.3333 6V18C22.3333 18.55 22.1375 19.0208 21.7458 19.4125C21.3541 19.8042 20.8833 20 20.3333 20H4.33331C3.78331 20 3.31248 19.8042 2.92081 19.4125C2.52915 19.0208 2.33331 18.55 2.33331 18V6C2.33331 5.45 2.52915 4.97917 2.92081 4.5875C3.31248 4.19583 3.78331 4 4.33331 4H20.3333C20.8833 4 21.3541 4.19583 21.7458 4.5875C22.1375 4.97917 22.3333 5.45 22.3333 6ZM4.33331 8H20.3333V6H4.33331V8ZM4.33331 12V18H20.3333V12H4.33331Z" fill="#191919"/>
</g>
</svg>
