<svg width="225" height="223" viewBox="0 0 225 223" fill="none" xmlns="http://www.w3.org/2000/svg">
<path d="M21.6373 187.858L19.6557 180.135C16.1422 178.664 12.5476 177.389 8.88886 176.318L8.63875 179.907L7.62437 175.953C3.0869 174.671 0 174.107 0 174.107C0 174.107 4.16863 189.775 12.9149 201.753L23.1051 203.522L15.1886 204.65C16.2888 205.958 17.4712 207.197 18.7287 208.358C31.4505 220.027 45.6206 225.381 50.378 220.316C55.1353 215.251 48.6788 201.686 35.9569 190.018C32.013 186.401 27.0587 183.498 22.0992 181.213L21.6373 187.858Z" fill="#DCDCDC"/>
<path d="M40.4825 179.47L42.826 171.847C40.5882 168.792 38.1779 165.865 35.6064 163.079L33.5149 166.024L34.7147 162.121C31.5003 158.707 29.1529 156.648 29.1529 156.648C29.1529 156.648 24.5266 172.19 25.747 186.911L33.5451 193.63L26.1769 190.552C26.4347 192.234 26.7993 193.898 27.2686 195.535C32.0552 212.022 41.3848 223.843 48.1066 221.937C54.8284 220.032 56.3974 205.122 51.6107 188.634C50.1269 183.523 47.404 178.508 44.3539 174.018L40.4825 179.47Z" fill="#DCDCDC"/>
<path d="M157.004 52.8288H155.768V19.3674C155.768 16.824 155.261 14.3055 154.276 11.9558C153.291 9.60604 151.847 7.47099 150.027 5.67257C148.207 3.87414 146.047 2.44755 143.669 1.47425C141.291 0.50095 138.742 0 136.168 0H64.4233C59.2251 0 54.2399 2.04048 50.5643 5.67257C46.8887 9.30465 44.8237 14.2308 44.8237 19.3674V202.943C44.8237 205.486 45.3307 208.005 46.3157 210.354C47.3006 212.704 48.7443 214.839 50.5643 216.638C52.3843 218.436 54.5449 219.863 56.9228 220.836C59.3008 221.809 61.8494 222.31 64.4233 222.31H136.168C141.366 222.31 146.351 220.27 150.027 216.637C153.703 213.005 155.767 208.079 155.767 202.943V76.6474H157.004L157.004 52.8288Z" fill="#E6E6E6"/>
<path d="M136.959 5.03683H127.595C128.025 6.08026 128.19 7.21233 128.073 8.33333C127.957 9.45432 127.563 10.5298 126.927 11.4651C126.291 12.4003 125.432 13.1666 124.425 13.6965C123.419 14.2263 122.296 14.5034 121.156 14.5034H80.0539C78.9135 14.5033 77.7907 14.2261 76.7843 13.6963C75.7779 13.1664 74.9188 12.4001 74.2828 11.4648C73.6467 10.5296 73.2531 9.45413 73.1367 8.33318C73.0204 7.21223 73.1848 6.08021 73.6154 5.03683H64.8686C60.9867 5.03683 57.2637 6.56065 54.5188 9.27305C51.7739 11.9855 50.2318 15.6643 50.2318 19.5002V202.809C50.2318 206.645 51.7739 210.324 54.5188 213.036C57.2637 215.749 60.9867 217.272 64.8686 217.272H136.959C140.841 217.272 144.564 215.749 147.309 213.036C150.054 210.324 151.596 206.645 151.596 202.809V19.4999C151.596 15.664 150.054 11.9853 147.309 9.27295C144.564 6.56061 140.841 5.03683 136.959 5.03683Z" fill="white"/>
<path d="M91.7275 78.0578C91.7272 76.7765 92.0686 75.5177 92.7171 74.4082C93.3657 73.2986 94.2985 72.3775 95.4218 71.7374C94.2991 71.0967 93.0254 70.7592 91.7288 70.7591C90.4323 70.759 89.1585 71.0961 88.0356 71.7366C86.9127 72.3771 85.9802 73.2985 85.3319 74.408C84.6836 75.5175 84.3423 76.7761 84.3423 78.0573C84.3423 79.3385 84.6836 80.5972 85.3319 81.7067C85.9802 82.8162 86.9127 83.7376 88.0356 84.3781C89.1585 85.0186 90.4323 85.3557 91.7288 85.3556C93.0254 85.3554 94.2991 85.018 95.4218 84.3773C94.2986 83.7373 93.3658 82.8164 92.7172 81.707C92.0687 80.5976 91.7273 79.339 91.7275 78.0578Z" fill="#CBCBCB"/>
<path d="M101.012 78.0578C101.012 76.7765 101.353 75.5177 102.002 74.4081C102.651 73.2986 103.583 72.3774 104.707 71.7374C103.584 71.0967 102.31 70.7592 101.014 70.7591C99.7172 70.759 98.4435 71.0961 97.3206 71.7366C96.1977 72.3771 95.2652 73.2985 94.6168 74.408C93.9685 75.5175 93.6272 76.7761 93.6272 78.0573C93.6272 79.3385 93.9685 80.5972 94.6168 81.7067C95.2652 82.8162 96.1977 83.7376 97.3206 84.3781C98.4435 85.0186 99.7172 85.3557 101.014 85.3556C102.31 85.3554 103.584 85.018 104.707 84.3773C103.584 83.7373 102.651 82.8164 102.002 81.707C101.354 80.5976 101.012 79.339 101.012 78.0578Z" fill="#CBCBCB"/>
<path d="M110.086 85.3557C114.165 85.3557 117.472 82.0882 117.472 78.0575C117.472 74.0268 114.165 70.7592 110.086 70.7592C106.007 70.7592 102.701 74.0268 102.701 78.0575C102.701 82.0882 106.007 85.3557 110.086 85.3557Z" fill="#FFB707"/>
<path d="M122.43 100.853H79.3841C78.9743 100.852 78.5814 100.691 78.2916 100.405C78.0019 100.119 77.8389 99.7303 77.8384 99.3254V56.7896C77.8389 56.3846 78.0019 55.9964 78.2916 55.7101C78.5814 55.4237 78.9743 55.2627 79.3841 55.2622H122.43C122.84 55.2627 123.232 55.4237 123.522 55.7101C123.812 55.9964 123.975 56.3846 123.976 56.7896V99.3254C123.975 99.7303 123.812 100.119 123.522 100.405C123.232 100.691 122.84 100.852 122.43 100.853ZM79.3841 55.8735C79.1382 55.8737 78.9025 55.9704 78.7286 56.1422C78.5547 56.314 78.457 56.5469 78.4567 56.7899V99.3257C78.457 99.5686 78.5547 99.8016 78.7286 99.9734C78.9025 100.145 79.1382 100.242 79.3841 100.242H122.43C122.676 100.242 122.911 100.145 123.085 99.9734C123.259 99.8016 123.357 99.5686 123.357 99.3257V56.7899C123.357 56.5469 123.259 56.314 123.085 56.1422C122.911 55.9704 122.676 55.8737 122.43 55.8735H79.3841Z" fill="#CBCBCB"/>
<path d="M132.041 133.458H66.0221V134.069H132.041V133.458Z" fill="#9A9A9A"/>
<path d="M68.107 129.644C69.2585 129.644 70.1919 128.721 70.1919 127.583C70.1919 126.446 69.2585 125.523 68.107 125.523C66.9555 125.523 66.0221 126.446 66.0221 127.583C66.0221 128.721 66.9555 129.644 68.107 129.644Z" fill="#FFB707"/>
<path d="M132.041 154.059H66.0221V154.671H132.041V154.059Z" fill="#9A9A9A"/>
<path d="M68.107 150.245C69.2585 150.245 70.1919 149.323 70.1919 148.185C70.1919 147.047 69.2585 146.125 68.107 146.125C66.9555 146.125 66.0221 147.047 66.0221 148.185C66.0221 149.323 66.9555 150.245 68.107 150.245Z" fill="#FFB707"/>
<path d="M130.833 177.519H109.969C109.609 177.519 109.263 177.377 109.008 177.125C108.754 176.873 108.61 176.532 108.61 176.176V168.95C108.61 168.594 108.754 168.252 109.008 168C109.263 167.749 109.609 167.607 109.969 167.607H130.833C131.193 167.607 131.539 167.749 131.794 168C132.049 168.252 132.192 168.594 132.192 168.95V176.176C132.192 176.532 132.049 176.873 131.794 177.125C131.539 177.377 131.193 177.519 130.833 177.519Z" fill="#FFB707"/>
<path d="M74.9079 129.644C76.0594 129.644 76.9928 128.721 76.9928 127.583C76.9928 126.446 76.0594 125.523 74.9079 125.523C73.7565 125.523 72.823 126.446 72.823 127.583C72.823 128.721 73.7565 129.644 74.9079 129.644Z" fill="#FFB707"/>
<path d="M81.7089 129.644C82.8604 129.644 83.7939 128.721 83.7939 127.583C83.7939 126.446 82.8604 125.523 81.7089 125.523C80.5575 125.523 79.624 126.446 79.624 127.583C79.624 128.721 80.5575 129.644 81.7089 129.644Z" fill="#FFB707"/>
<path d="M74.9079 150.245C76.0594 150.245 76.9928 149.323 76.9928 148.185C76.9928 147.047 76.0594 146.125 74.9079 146.125C73.7565 146.125 72.823 147.047 72.823 148.185C72.823 149.323 73.7565 150.245 74.9079 150.245Z" fill="#FFB707"/>
<path d="M81.7089 150.245C82.8604 150.245 83.7939 149.323 83.7939 148.185C83.7939 147.047 82.8604 146.125 81.7089 146.125C80.5575 146.125 79.624 147.047 79.624 148.185C79.624 149.323 80.5575 150.245 81.7089 150.245Z" fill="#FFB707"/>
<path d="M170.575 146.103C170.723 146.17 170.865 146.248 171.001 146.338L184.55 140.623L185.033 137.097L190.447 137.064L190.127 145.153L172.244 149.826C172.207 149.949 172.161 150.069 172.109 150.187C171.851 150.732 171.435 151.189 170.914 151.502C170.393 151.814 169.79 151.967 169.182 151.943C168.573 151.918 167.985 151.716 167.492 151.362C166.999 151.008 166.623 150.518 166.411 149.953C166.199 149.389 166.161 148.775 166.3 148.189C166.44 147.603 166.752 147.071 167.197 146.66C167.642 146.248 168.2 145.976 168.801 145.877C169.402 145.778 170.019 145.856 170.575 146.103Z" fill="#FFB8B8"/>
<path d="M192.416 219.401H188.712L186.951 205.286L192.416 205.286L192.416 219.401Z" fill="#FFB8B8"/>
<path d="M186.067 218.356H193.209V222.799H181.57C181.57 221.621 182.044 220.491 182.887 219.657C183.731 218.824 184.874 218.356 186.067 218.356Z" fill="#2F2E41"/>
<path d="M206.819 218.367L203.133 218.726L199.979 204.85L205.419 204.32L206.819 218.367Z" fill="#FFB8B8"/>
<path d="M200.397 217.942L207.505 217.25L207.946 221.672L196.362 222.8C196.305 222.219 196.363 221.632 196.534 221.074C196.706 220.516 196.987 219.996 197.362 219.545C197.736 219.094 198.197 218.72 198.718 218.445C199.239 218.17 199.809 217.999 200.397 217.942Z" fill="#2F2E41"/>
<path d="M193.447 122.125C197.544 122.125 200.866 118.843 200.866 114.794C200.866 110.745 197.544 107.463 193.447 107.463C189.349 107.463 186.027 110.745 186.027 114.794C186.027 118.843 189.349 122.125 193.447 122.125Z" fill="#FFB8B8"/>
<path d="M187.885 216.547C187.566 216.548 187.258 216.437 187.014 216.235C186.77 216.033 186.606 215.753 186.551 215.443C184.634 204.928 178.368 170.548 178.219 169.595C178.215 169.573 178.214 169.551 178.214 169.529V166.966C178.214 166.872 178.243 166.781 178.298 166.705L179.126 165.56C179.165 165.505 179.217 165.459 179.277 165.427C179.337 165.395 179.403 165.376 179.471 165.373C184.19 165.155 199.645 164.514 200.392 165.436C201.142 166.362 200.877 169.169 200.816 169.722L200.819 169.78L207.762 213.657C207.817 214.007 207.729 214.364 207.519 214.651C207.309 214.938 206.994 215.132 206.64 215.19L202.303 215.896C201.98 215.947 201.65 215.882 201.371 215.713C201.092 215.544 200.885 215.281 200.785 214.973C199.444 210.738 194.947 196.491 193.388 190.978C193.378 190.943 193.356 190.913 193.325 190.893C193.295 190.873 193.258 190.865 193.221 190.87C193.185 190.875 193.152 190.893 193.128 190.92C193.104 190.948 193.091 190.983 193.092 191.019C193.17 196.274 193.358 209.682 193.423 214.313L193.43 214.812C193.433 215.149 193.307 215.476 193.078 215.727C192.849 215.977 192.534 216.134 192.193 216.166L188.012 216.541C187.969 216.545 187.927 216.547 187.885 216.547Z" fill="#2F2E41"/>
<path d="M188.738 125.008C187.443 125.769 186.668 127.166 186.224 128.589C185.401 131.222 184.905 133.944 184.748 136.696L184.279 144.934L178.462 166.775C183.503 170.99 186.411 170.032 193.197 166.584C199.984 163.137 200.759 167.734 200.759 167.734L202.116 149.15L204.055 128.843C203.62 128.325 203.127 127.857 202.586 127.447C200.794 126.07 198.709 125.113 196.488 124.648C194.268 124.183 191.969 124.222 189.766 124.762L188.738 125.008Z" fill="#FFB707"/>
<path d="M186.849 150.514C187.005 150.572 187.157 150.642 187.302 150.724L200.699 144.098L200.921 140.508L206.447 140.132L206.743 148.314L188.84 154.165C188.694 154.784 188.361 155.345 187.884 155.773C187.407 156.201 186.81 156.475 186.172 156.559C185.534 156.643 184.885 156.533 184.311 156.244C183.738 155.955 183.267 155.5 182.962 154.94C182.656 154.38 182.531 153.741 182.601 153.109C182.672 152.477 182.936 151.881 183.358 151.4C183.78 150.92 184.34 150.577 184.963 150.419C185.587 150.261 186.245 150.294 186.849 150.514Z" fill="#FFB8B8"/>
<path d="M203.958 128.936C207.254 130.085 207.835 142.539 207.835 142.539C203.957 140.432 199.304 143.88 199.304 143.88C199.304 143.88 198.334 140.623 197.171 136.408C196.82 135.223 196.778 133.969 197.049 132.763C197.32 131.557 197.895 130.438 198.722 129.511C198.722 129.511 200.662 127.785 203.958 128.936Z" fill="#FFB707"/>
<path d="M200.099 116.733C199.175 116.002 197.914 117.33 197.914 117.33L197.174 110.753C197.174 110.753 192.552 111.301 189.594 110.571C186.636 109.841 186.174 113.22 186.174 113.22C186.021 111.855 185.99 110.48 186.081 109.109C186.266 107.465 188.67 105.821 192.922 104.725C197.174 103.628 199.393 108.379 199.393 108.379C202.351 109.84 201.024 117.464 200.099 116.733Z" fill="#2F2E41"/>
</svg>
