<svg width="25" height="24" viewBox="0 0 25 24" fill="none" xmlns="http://www.w3.org/2000/svg">
<g clip-path="url(#clip0_21_2583)">
<mask id="mask0_21_2583" style="mask-type:alpha" maskUnits="userSpaceOnUse" x="0" y="0" width="25" height="24">
<rect x="0.5" width="24" height="24" fill="#D9D9D9"/>
</mask>
<g mask="url(#mask0_21_2583)">
<path d="M11.3 12L15.2 15.9C15.3833 16.0833 15.475 16.3167 15.475 16.6C15.475 16.8833 15.3833 17.1167 15.2 17.3C15.0167 17.4833 14.7833 17.575 14.5 17.575C14.2167 17.575 13.9833 17.4833 13.8 17.3L9.19999 12.7C9.09999 12.6 9.02915 12.4917 8.98749 12.375C8.94582 12.2583 8.92499 12.1333 8.92499 12C8.92499 11.8667 8.94582 11.7417 8.98749 11.625C9.02915 11.5083 9.09999 11.4 9.19999 11.3L13.8 6.69999C13.9833 6.51665 14.2167 6.42499 14.5 6.42499C14.7833 6.42499 15.0167 6.51665 15.2 6.69999C15.3833 6.88332 15.475 7.11665 15.475 7.39999C15.475 7.68332 15.3833 7.91665 15.2 8.09999L11.3 12Z" fill="#191919"/>
</g>
</g>
<defs>
<clipPath id="clip0_21_2583">
<rect width="24" height="24" fill="white" transform="translate(0.5)"/>
</clipPath>
</defs>
</svg>
