<svg width="24" height="24" viewBox="0 0 24 24" fill="none" xmlns="http://www.w3.org/2000/svg">
<g clip-path="url(#clip0_137_2512)">
<mask id="mask0_137_2512" style="mask-type:alpha" maskUnits="userSpaceOnUse" x="0" y="0" width="24" height="24">
<rect width="24" height="24" fill="#D9D9D9"/>
</mask>
<g mask="url(#mask0_137_2512)">
<path d="M10.8 12L14.7 15.9C14.8833 16.0833 14.975 16.3167 14.975 16.6C14.975 16.8833 14.8833 17.1167 14.7 17.3C14.5167 17.4833 14.2833 17.575 14 17.575C13.7167 17.575 13.4833 17.4833 13.3 17.3L8.7 12.7C8.6 12.6 8.52917 12.4917 8.4875 12.375C8.44584 12.2583 8.425 12.1333 8.425 12C8.425 11.8667 8.44584 11.7417 8.4875 11.625C8.52917 11.5083 8.6 11.4 8.7 11.3L13.3 6.7C13.4833 6.51667 13.7167 6.425 14 6.425C14.2833 6.425 14.5167 6.51667 14.7 6.7C14.8833 6.88333 14.975 7.11667 14.975 7.4C14.975 7.68333 14.8833 7.91667 14.7 8.1L10.8 12Z" fill="#191919"/>
</g>
</g>
<defs>
<clipPath id="clip0_137_2512">
<rect width="24" height="24" fill="white"/>
</clipPath>
</defs>
</svg>
